<?xml version="1.0" standalone="no"?>
<!DOCTYPE svg PUBLIC "-//W3C//DTD SVG 20010904//EN"
 "http://www.w3.org/TR/2001/REC-SVG-20010904/DTD/svg10.dtd">
<svg version="1.0" xmlns="http://www.w3.org/2000/svg"
 width="205.000000pt" height="205.000000pt" viewBox="0 0 205.000000 205.000000"
 preserveAspectRatio="xMidYMid meet">
<metadata>
Created by potrace 1.11, written by Peter Selinger 2001-2013
</metadata>
<g transform="translate(0.000000,205.000000) scale(0.100000,-0.100000)"
fill="#000000" stroke="none">
<path d="M910 1657 c-3 -3 -27 -8 -55 -11 -143 -16 -336 -101 -465 -204 -214
-170 -357 -439 -383 -714 l-4 -46 55 -4 c30 -1 57 -1 61 2 5 3 11 32 15 65 3
33 20 103 36 155 98 309 349 540 655 605 63 13 264 17 326 6 110 -19 119 -21
167 -37 323 -109 559 -397 598 -734 3 -30 7 -56 8 -57 2 -2 68 -5 94 -4 23 1
24 3 18 73 -3 40 -18 115 -32 167 -100 352 -373 617 -732 713 -73 19 -349 38
-362 25z"/>
<path d="M599 1053 c-88 -233 6 -496 215 -598 58 -28 172 -55 214 -50 15 2 48
7 74 10 102 13 238 105 300 202 70 108 91 270 51 398 l-19 60 -137 2 -138 2
34 -42 c80 -99 79 -235 -3 -317 -98 -98 -245 -99 -337 -4 -49 50 -67 104 -60
178 7 79 20 110 65 159 l26 27 -137 0 -137 0 -11 -27z"/>
</g>
</svg>
