<?xml version="1.0" encoding="utf-8"?>
<!-- Generator: Adobe Illustrator 22.0.1, SVG Export Plug-In . SVG Version: 6.00 Build 0)  -->
<svg version="1.1" id="Layer_1" xmlns="http://www.w3.org/2000/svg" xmlns:xlink="http://www.w3.org/1999/xlink" x="0px" y="0px"
	 viewBox="0 0 253 179.7" style="enable-background:new 0 0 253 179.7;" xml:space="preserve">
<style type="text/css">
	.st0{fill:#FFFFFF;}
</style>
<title>casker-white</title>
<path class="st0" d="M14.8,133.8C17.6,85.2,55.3,29,125.6,29c60.5,0,109.9,44.5,112.7,104.9H253C250.5,65.7,194.4,11.8,126.2,12
	C59.7,12,3.3,63.4,0,133.8H14.8z"/>
<path class="st0" d="M108.3,84.7c-7.3,6.1-11.5,15.1-11.4,24.6c-0.1,7.4,2.6,14.6,7.5,20.2c12,11.9,31.4,11.7,43.2-0.3
	c0.1-0.1,0.3-0.3,0.4-0.4c4.9-5.3,7.4-12.4,7.2-19.6c0.2-9.6-4.2-18.8-11.9-24.6H177c3.5,8,5.4,16.7,5.5,25.5
	c0.2,31.6-25.2,57.4-56.8,57.6c-0.1,0-0.3,0-0.4,0c-14.9-0.1-29.2-6-39.8-16.5c-10.8-11.3-16.6-26.4-16.3-42.1
	c0-7,1.3-13.2,5.4-24.5L108.3,84.7z"/>
</svg>
