<?xml version="1.0" encoding="utf-8"?>
<!-- Generator: Adobe Illustrator 22.0.1, SVG Export Plug-In . SVG Version: 6.00 Build 0)  -->
<svg version="1.1" id="Layer_1" xmlns="http://www.w3.org/2000/svg" xmlns:xlink="http://www.w3.org/1999/xlink" x="0px" y="0px"
	 viewBox="0 0 56 28" style="enable-background:new 0 0 56 28;" xml:space="preserve">
<style type="text/css">
	.st0{fill:#222222;}
</style>
<path class="st0" d="M56,26v2h-7.8C50.5,26.7,53.2,26,56,26z M30,28c0-1.1-0.9-2-2-2s-2,0.9-2,2h-4.1C17.1,20.5,8.9,16,0,16v-2
	c0.7,0,1.3,0,2,0.1V14c0-1.1-0.9-2-2-2v-2c2.1,0,3.8,1.6,4,3.6c0.8-1.4,1.8-2.7,2.8-3.9C5.3,7.4,2.8,6,0,6V4c3.2,0,6.3,1.6,8.2,4.2
	c0.9-0.9,2-1.8,3-2.6C8.6,2.1,4.4,0,0,0h7.8c2,1.1,3.7,2.6,5.1,4.4c1.1-0.7,2.3-1.4,3.5-1.9C15.7,1.6,15,0.8,14.3,0H17
	c0.5,0.6,0.9,1.1,1.3,1.7c1.3-0.5,2.6-0.9,4-1.1C22.2,0.4,22,0.2,21.9,0H26v0.1c1.3-0.1,2.7-0.1,4,0V0h4.1l-0.4,0.6
	c1.4,0.3,2.7,0.7,4,1.2C38.1,1.1,38.6,0.6,39,0h2.7c-0.8,0.8-1.5,1.6-2.1,2.5c1.2,0.6,2.4,1.2,3.5,1.9c1.4-1.8,3.1-3.3,5.1-4.4H56
	c-4.6,0-8.7,2.2-11.2,5.6c1.1,0.8,2.1,1.7,3,2.6C49.7,5.6,52.8,4,56,4v2c-2.7,0-5.3,1.4-6.8,3.7c1,1.2,2,2.5,2.8,3.9
	c0.2-2,1.9-3.6,4-3.6v2c-1.1,0-2,0.9-2,2c0,0,0,0,0,0.1c0.7,0,1.3-0.1,2-0.1v2c-9.2,0-17.3,4.8-21.9,12H30z M7.8,28H0v-2
	C2.8,26,5.5,26.7,7.8,28z M56,20v2c-5.6,0-10.7,2.3-14.3,6H39C43.1,23.1,49.2,20,56,20z M17,28h-2.7c-3.6-3.7-8.7-6-14.3-6v-2
	C6.8,20,12.9,23.1,17,28z M32,27.6c0.8-1.4,1.8-2.7,2.8-3.9c-2.3-3.7-7.3-4.9-11-2.5c-1,0.6-1.9,1.5-2.5,2.5c1,1.2,2,2.5,2.8,3.9
	c0.2-2.2,2.2-3.8,4.4-3.6C30.3,24.2,31.8,25.7,32,27.6z M46.3,15.7c1.3-0.5,2.6-0.9,4-1.1C42.9,2.3,26.9-1.7,14.6,5.7
	c-3.6,2.2-6.7,5.2-8.9,8.9c1.4,0.3,2.7,0.7,4,1.1C16.5,5.6,30.1,2.9,40.2,9.7C42.6,11.3,44.7,13.3,46.3,15.7z M40.8,18.5
	c1.1-0.7,2.3-1.4,3.5-1.9c-6.3-9-18.8-11.3-27.8-4.9c-1.9,1.3-3.6,3-4.9,4.9c1.2,0.6,2.4,1.2,3.5,1.9c5.3-7.1,15.3-8.6,22.4-3.3
	C38.8,16.1,39.9,17.2,40.8,18.5z M36.2,22.2c0.9-1,2-1.8,3-2.6c-4.6-6.2-13.4-7.5-19.6-2.8c-1.1,0.8-2,1.8-2.8,2.8
	c1.1,0.8,2.1,1.7,3,2.6c3.2-4.5,9.4-5.6,13.9-2.4C34.7,20.5,35.5,21.3,36.2,22.2z"/>
</svg>
