<svg xmlns="http://www.w3.org/2000/svg" viewBox="0 0 252.97 179.68"><defs><style>.cls-1{fill:#fff;}</style></defs><title>Asset 5</title><g id="Layer_2" data-name="Layer 2"><g id="Layer_1-2" data-name="Layer 1"><path class="cls-1" d="M79.75,49C80.87,29.46,96.07,6.82,124.32,6.82c24.34,0,44.21,17.92,45.32,42.19h5.93a50.85,50.85,0,0,0-51-49C97.84,0,75.13,20.68,73.81,49Z"/><path class="cls-1" d="M117.39,29.23a12.87,12.87,0,0,0-4.6,9.91,12.23,12.23,0,0,0,3,8.14A12.29,12.29,0,0,0,133.33,47a11.12,11.12,0,0,0,2.89-7.88,12.19,12.19,0,0,0-4.79-9.91H145a27.22,27.22,0,0,1,2.23,10.24,23,23,0,0,1-23,23.16,23,23,0,0,1-16-6.63,23.78,23.78,0,0,1-6.56-16.92c0-2.83.53-5.32,2.17-9.85Z"/><path class="cls-1" d="M43.13,103.54c-6.07-5.49-11.72-6.07-14.84-6.07-11.89,0-19.93,8.78-19.93,20.83,0,11.56,8.37,20.5,20,20.5a21.7,21.7,0,0,0,14.76-6.31v9.92a29.82,29.82,0,0,1-15,4.1A27.43,27.43,0,0,1,8.77,139C2.38,133,0,126,0,118.3c0-10.09,4.18-17,8.77-21.4,5.66-5.33,12.22-7.14,19.77-7.14A26,26,0,0,1,43.13,93.7Z"/><path class="cls-1" d="M82.66,132.24H59.29l-6,13.2h-9L71.5,87.55l25.92,57.89h-9Zm-3.37-7.87-8.11-18.53-8.45,18.53Z"/><path class="cls-1" d="M123.57,102.88a8.48,8.48,0,0,0-8.36-5.41c-5.08,0-7.71,3-7.71,6.56,0,1.64.58,4.51,5.91,6.64l5.49,2.22C129,117,131.77,122.73,131.77,129c0,10.42-7.38,17.55-17.63,17.55-6.31,0-10.08-2.38-12.87-5.49a17.67,17.67,0,0,1-4.59-10.66l8.28-1.81a11.81,11.81,0,0,0,2.29,7,8.64,8.64,0,0,0,7.14,3.28,8.79,8.79,0,0,0,9-9.18c0-5.58-4.26-7.87-7.87-9.35l-5.25-2.21c-4.51-1.89-11.15-5.66-11.15-13.86,0-7.38,5.74-14.44,16-14.44,5.9,0,9.26,2.22,11,3.7A18.66,18.66,0,0,1,130.3,99Z"/><path class="cls-1" d="M145.47,112.56l21.15-21.81h11l-24.68,24.76,24.84,29.93H166.62l-19.51-24.27-1.64,1.64v22.63H137.1V90.75h8.37Z"/><path class="cls-1" d="M211.64,98.62H189.83v13.86H211v7.87H189.83v17.22h21.81v7.87H181.46V90.75h30.18Z"/><path class="cls-1" d="M227.14,90.75c6.64,0,10.9.82,14.43,3.2,6,4,6.48,10.49,6.48,12.87a15,15,0,0,1-12.14,15.25L253,145.44H242.88l-15.66-22.38h-1.48v22.38h-8.36V90.75Zm-1.4,25.09h2.63c2.29,0,11.64-.24,11.64-8.94,0-7.71-7.3-8.44-11.4-8.44h-2.87Z"/><path class="cls-1" d="M70.65,178.16a13.47,13.47,0,0,1-6.44,1.52,12.83,12.83,0,0,1-9.51-3.62,13,13,0,0,1-4.18-9.95,13.58,13.58,0,0,1,4.18-10.18,13.29,13.29,0,0,1,9.55-3.43,13.07,13.07,0,0,1,6.4,1.6V160a8.39,8.39,0,0,0-6.28-2.93c-5.23,0-8.62,4.29-8.62,9.09a8.62,8.62,0,0,0,8.81,8.89,7.87,7.87,0,0,0,6.09-2.85Z"/><path class="cls-1" d="M81.88,153.08c3.59,0,5.42.94,6.63,1.95a7.38,7.38,0,0,1,2.57,5.85A7.11,7.11,0,0,1,88,167a7.41,7.41,0,0,1-2.85,1.13l8.12,11H87l-6.94-10.46h-.63V179.1H74.35v-26Zm-2.46,12h1.45c1,0,5-.12,5-3.94s-4-3.9-4.92-3.9H79.42Z"/><path class="cls-1" d="M109.18,157.45H99.82v5.81h9v4.37h-9v7.1h9.36v4.37H94.75v-26h14.43Z"/><path class="cls-1" d="M128.37,173.64H117.88l-2.31,5.46h-5.5l11.2-26h4l10.88,26h-5.46Zm-1.49-4.14-3.7-9.36-3.71,9.36Z"/><path class="cls-1" d="M144.12,157.45V179.1h-5.07V157.45H133.2v-4.37H150v4.37Z"/><path class="cls-1" d="M157.18,153.08v26h-5.07v-26Z"/><path class="cls-1" d="M164.74,153.08l6.94,17.48,6.94-17.48h5.54l-11,26h-3l-10.92-26Z"/><path class="cls-1" d="M199.92,157.45h-9.37v5.81h9v4.37h-9v7.1h9.37v4.37H185.48v-26h14.44Z"/></g></g></svg>