<?xml version="1.0" encoding="utf-8"?>
<!-- Generator: Adobe Illustrator 22.0.1, SVG Export Plug-In . SVG Version: 6.00 Build 0)  -->
<svg version="1.1" id="Layer_1" xmlns="http://www.w3.org/2000/svg" xmlns:xlink="http://www.w3.org/1999/xlink" x="0px" y="0px"
	 viewBox="0 0 434 379.8" style="enable-background:new 0 0 434 379.8;" xml:space="preserve">
<style type="text/css">
	.st0{fill:#FFFFFF;stroke:#000000;stroke-miterlimit:10;}
	.st1{fill:#730003;}
</style>
<path class="st0" d="M13,101l81.9-9c0,0,48.1-55.7,77.1-64.9s57.4-24.4,94-4.1s34,48,34,48s88.4-23,106.7,22s18,202,13.3,227
	s-61,55-126,51s-179.1-32-199.1-32S12,352,13,334S13,101,13,101z"/>
<title>left-glove</title>
<g id="Layer_2_1_">
	<g id="Layer_1-2">
		<path class="st1" d="M128.2,165.8c3.3,1.7,4.7,5.7,3,9.1l-21,42.1l21,42.1c1.7,3.3,0.4,7.4-2.9,9c0,0,0,0-0.1,0l-12.2,6.1
			c-3.3,1.7-7.4,0.3-9-3c0,0,0-0.1,0-0.1l-12-23.9l-12,23.9c-1.6,3.3-5.6,4.7-8.9,3.1c-0.1,0-0.1-0.1-0.2-0.1l-12.1-6.1
			c-3.3-1.6-4.7-5.6-3.1-8.9c0,0,0-0.1,0.1-0.1l21-42.1l-21-42.1c-1.7-3.3-0.4-7.4,3-9c0,0,0,0,0,0l12.1-6.1
			c3.3-1.7,7.4-0.4,9.1,2.9c0,0.1,0.1,0.1,0.1,0.2l12,23.9l12-23.9c1.6-3.3,5.6-4.7,8.9-3.1c0,0,0.1,0,0.1,0L128.2,165.8
			L128.2,165.8z M116.4,52.2C148,18.6,190,0,234.8,0c33.5,0,61.7,22.7,72.4,54.3h37c49.5,0,89.9,39.6,89.9,88.2v148.2
			c0,49.2-40.4,89.2-89.9,89.2c-51.6,0-103-4.2-153.9-12.6l-81.8-14.5H27.1c-15,0-27.1-12.1-27.1-27.1c0,0,0,0,0-0.1v-217
			c0-15,12.1-27.1,27.1-27.1c0,0,0,0,0.1,0h62L116.4,52.2L116.4,52.2z M108.5,100.3v28.6c0,3.7-3,6.8-6.8,6.8H88.2
			c-3.7,0-6.8-3-6.8-6.8v-20.3H27.1v217l54.2,0.2v-20.5c0-3.7,3-6.8,6.8-6.8h13.6c3.7,0,6.8,3,6.8,6.8v20.5
			c21.6,0.1,108.8,27,235.6,27c34.6,0,62.7-27.8,62.6-62V142.4c0-34.3-27.5-61-62.7-61h-32.2v27.1c-0.1,14.7-4.9,29-13.9,40.7h0.3
			v97.2c0,18.8,6.7,37,18.9,51.3c2.3,2.7,2.2,6.7-0.3,9.2l-9.6,9.6c-2.6,2.7-6.9,2.7-9.6,0c-0.1-0.1-0.2-0.2-0.3-0.4
			c-16.9-19.3-26.2-44.1-26.1-69.8v-75.9c-34.2,15.1-74.1-0.4-89.2-34.5c-2.8-6.4-4.6-13.1-5.4-20c-0.4-3.7,2.4-7.1,6.1-7.4
			c0.2,0,0.4,0,0.6,0H197c3.4,0,6.3,2.5,6.9,5.8c2.9,20.3,20.5,35.2,41,34.8c22.3-0.4,39.9-19.1,39.9-41.4V81.4
			c0-29.9-22.5-54.3-50-54.3c-37.2,0-72.2,15.5-98.6,43.7L108.5,100.3z"/>
	</g>
</g>
</svg>
