<?xml version="1.0" encoding="utf-8"?>
<!-- Generator: Adobe Illustrator 22.0.1, SVG Export Plug-In . SVG Version: 6.00 Build 0)  -->
<svg version="1.1" id="Layer_1" xmlns="http://www.w3.org/2000/svg" xmlns:xlink="http://www.w3.org/1999/xlink" x="0px" y="0px"
	 viewBox="0 0 1058 483" style="enable-background:new 0 0 1058 483;" xml:space="preserve">
<style type="text/css">
	.st0{fill:url(#SVGID_1_);}
	.st1{fill:#95FAFF;}
	.st2{opacity:0.65;fill:#D1E0FF;}
	.st3{fill:#C1E5FF;}
	.st4{fill:#E0DFFF;}
	.st5{fill:#E4DFFF;}
	.st6{opacity:0.4;fill:#F7E9FF;}
	.st7{opacity:0.56;fill:#D8DFFF;}
</style>
<linearGradient id="SVGID_1_" gradientUnits="userSpaceOnUse" x1="529" y1="479.1936" x2="529" y2="1.2713">
	<stop  offset="0" style="stop-color:#95FAFF"/>
	<stop  offset="1" style="stop-color:#F482FF;stop-opacity:0"/>
</linearGradient>
<path class="st0" d="M1031.5,0c0.1,1.4,0.2,2.8,0.2,4.2v200c0,32-25.9,57.9-58,57.9c-32,0-58-25.9-58-57.9V4.2
	c0-1.4,0.1-2.8,0.2-4.2h-11.8v451.7c0,6.9-5.6,12.4-12.4,12.4h0c-6.9,0-12.4-5.6-12.4-12.4V0h-7.2v451.7c0,6.9-5.6,12.4-12.4,12.4h0
	c-6.9,0-12.4-5.6-12.4-12.4V0H826v245.1c0,15.3-12.5,27.8-27.8,27.8h0c-15.4,0-27.8-12.4-27.8-27.8V0h-91.7v451.7
	c0,6.9-5.6,12.4-12.4,12.4h0c-6.9,0-12.4-5.6-12.4-12.4V0h-7.2v451.7c0,6.9-5.6,12.4-12.4,12.4h0c-6.9,0-12.4-5.6-12.4-12.4V0H607
	v376.3c0,15.3-12.5,27.8-27.8,27.8h0c-15.4,0-27.8-12.4-27.8-27.8V0h-16.2v245.1c0,15.3-12.5,27.8-27.8,27.8h0
	c-15.4,0-27.8-12.4-27.8-27.8V0h-24.2v436.3c0,15.3-12.5,27.8-27.8,27.8h0c-15.4,0-27.8-12.4-27.8-27.8V0h-16.2v287.9
	c0,15.3-12.5,27.8-27.8,27.8h0c-15.4,0-27.8-12.4-27.8-27.8V0h-33.9c0.1,1.4,0.2,2.8,0.2,4.2v303.1c0,32-25.9,57.9-58,57.9
	s-58-25.9-58-57.9V4.2c0-1.4,0.1-2.8,0.2-4.2h-34.1c0.1,1.4,0.2,2.8,0.2,4.2v402c0,32-25.9,57.9-58,57.9s-58-25.9-58-57.9V4.2
	c0-1.4,0.1-2.8,0.2-4.2H0v482h1058V0H1031.5z"/>
<path class="st1" d="M51.6,425.2c-4.6,0-7.4,5-5,9c8.1,13.5,22.9,22.6,39.8,22.6c17,0,31.9-9.2,40-22.9c2.3-3.9-0.7-8.7-5.1-8.7
	H51.6z"/>
<path class="st2" d="M201.2,324.1c-4.6,0-7.4,5-5,9c8.1,13.5,22.9,22.6,39.8,22.6c17,0,31.9-9.2,40-22.9c2.3-3.9-0.7-8.7-5.1-8.7
	H201.2z"/>
<path class="st1" d="M409.8,437.8c-2.4,0-3.8,3-2.6,5.4c4.2,8.1,11.8,13.6,20.6,13.6c8.8,0,16.5-5.5,20.7-13.7
	c1.2-2.3-0.3-5.2-2.7-5.2H409.8z"/>
<path class="st3" d="M561.5,378.9c-2.4,0-3.8,3-2.6,5.4c4.2,8.1,11.8,13.6,20.6,13.6c8.8,0,16.5-5.5,20.7-13.7
	c1.2-2.3-0.3-5.2-2.7-5.2H561.5z"/>
<path class="st4" d="M778.8,246.3c-2.5,0-4,3.3-2.7,6c4.4,9,12.4,15.1,21.6,15.1c9.3,0,17.3-6.1,21.7-15.2c1.2-2.6-0.4-5.8-2.8-5.8
	H778.8z"/>
<path class="st5" d="M937.8,221c-4.9,0-7.8,5-5.3,9c8.6,13.5,24.3,22.6,42.2,22.6c18.1,0,33.9-9.2,42.4-22.9
	c2.4-3.9-0.7-8.7-5.5-8.7H937.8z"/>
<path class="st1" d="M627.2,454.6c-1,0-1.5,1-1,1.8c1.7,2.7,4.7,4.5,8.2,4.5c3.5,0,6.6-1.8,8.3-4.6c0.5-0.8-0.1-1.7-1.1-1.7H627.2z"
	/>
<path class="st1" d="M658.8,454.6c-1,0-1.5,1-1,1.8c1.7,2.7,4.7,4.5,8.2,4.5c3.5,0,6.6-1.8,8.3-4.6c0.5-0.8-0.1-1.7-1.1-1.7H658.8z"
	/>
<path class="st1" d="M852.7,454.6c-1,0-1.5,1-1,1.8c1.7,2.7,4.7,4.5,8.2,4.5c3.5,0,6.6-1.8,8.3-4.6c0.5-0.8-0.1-1.7-1.1-1.7H852.7z"
	/>
<path class="st1" d="M884.3,454.6c-1,0-1.5,1-1,1.8c1.7,2.7,4.7,4.5,8.2,4.5c3.5,0,6.6-1.8,8.3-4.6c0.5-0.8-0.1-1.7-1.1-1.7H884.3z"
	/>
<path class="st6" d="M489.9,248.4c-2.4,0-3.8,3-2.6,5.4c4.2,8.1,11.8,13.6,20.6,13.6c8.8,0,16.5-5.5,20.7-13.7
	c1.2-2.3-0.3-5.2-2.7-5.2H489.9z"/>
<path class="st7" d="M341.3,290.5c-2.1,0-3.3,3-2.2,5.4c3.6,8.1,10.3,13.6,17.8,13.6c7.6,0,14.3-5.5,17.9-13.7
	c1-2.3-0.3-5.2-2.3-5.2H341.3z"/>
</svg>
