<?xml version="1.0" encoding="utf-8"?>
<!-- Generator: Adobe Illustrator 22.0.1, SVG Export Plug-In . SVG Version: 6.00 Build 0)  -->
<svg version="1.1" id="Layer_1" xmlns="http://www.w3.org/2000/svg" xmlns:xlink="http://www.w3.org/1999/xlink" x="0px" y="0px"
	 viewBox="0 0 434 379.8" style="enable-background:new 0 0 434 379.8;" xml:space="preserve">
<style type="text/css">
	.st0{fill:#FFFFFF;stroke:#000000;stroke-miterlimit:10;}
	.st1{fill:#730003;}
</style>
<path class="st0" d="M421.7,103l-81.9-9c0,0-48.1-55.7-77.1-64.9s-57.4-24.4-94-4.1s-34,48-34,48S46.3,50,28,95S10,297,14.7,322
	s61,55,126,51s179.1-32,199.1-32c19.9,0,82.9,13,81.9-5S421.7,103,421.7,103z"/>
<title>right-glove</title>
<g id="Layer_2_1_">
	<g id="Layer_1-2">
		<path class="st1" d="M305.8,165.8l12.2-6.1c3.3-1.7,7.3-0.4,9,2.9c0,0.1,0.1,0.1,0.1,0.2l12,23.9l11.9-23.9c1.6-3.3,5.7-4.7,9-3.1
			c0,0,0.1,0,0.1,0l12.1,6.1c3.3,1.6,4.7,5.7,3.1,9c0,0,0,0,0,0.1l-21,42.1l21,42.1c1.7,3.3,0.4,7.3-2.9,9c-0.1,0-0.1,0.1-0.2,0.1
			l-12.1,6.1c-3.3,1.7-7.3,0.4-9-2.9c0-0.1-0.1-0.1-0.1-0.2l-12-23.9l-12,23.9c-1.6,3.3-5.6,4.7-9,3.1c0,0-0.1,0-0.1-0.1l-12.1-6.1
			c-3.3-1.6-4.7-5.7-3.1-9c0,0,0-0.1,0-0.1l21-42.1l-21-42.1C301.2,171.5,302.5,167.5,305.8,165.8L305.8,165.8z M317.6,52.2
			l27.3,29.2h62c15,0,27.1,12.1,27.1,27.1c0,0,0,0,0,0v217c0,15-12.1,27.1-27.1,27.1c0,0,0,0-0.1,0h-81.4l-81.8,14.5
			c-50.9,8.4-102.3,12.6-153.9,12.6c-49.5,0-89.8-40-89.8-89.2V142.4c0-48.6,40.3-88.2,89.8-88.2h37C137.5,22.7,165.7,0,199.2,0
			C244,0,286,18.6,317.6,52.2z M297.8,70.8c-26.4-28.1-61.4-43.7-98.6-43.7c-27.6,0-50,24.3-50,54.3v26.4
			c0,22.3,17.6,40.9,39.9,41.4c20.5,0.4,38.1-14.5,41-34.8c0.5-3.4,3.5-5.9,6.9-5.9h13.6c3.8,0,6.8,3.1,6.8,6.8c0,0.2,0,0.4,0,0.6
			c-4,37.1-37.3,64-74.5,60c-6.9-0.7-13.7-2.6-20.1-5.4v75.9c0.1,25.7-9.2,50.5-26.1,69.8c-2.5,2.8-6.7,3.1-9.6,0.7
			c-0.1-0.1-0.2-0.2-0.4-0.3l-9.6-9.6c-2.5-2.5-2.7-6.5-0.3-9.2c12.2-14.3,18.9-32.5,18.9-51.3v-97.2h0.3c-9-11.7-13.8-26-13.9-40.7
			V81.4H90c-35.2,0-62.7,26.8-62.7,61v148.2c-0.2,34.2,28,62,62.6,62c126.8,0,214-26.9,235.6-27v-20.5c0-3.7,3-6.8,6.8-6.8h13.6
			c3.7,0,6.8,3,6.8,6.8v20.5l54.3-0.2v-217h-54.2v20.3c0,3.7-3,6.8-6.8,6.8h-13.6c-3.7,0-6.8-3-6.8-6.8v-28.6L297.8,70.8z"/>
	</g>
</g>
</svg>
