<svg xmlns="http://www.w3.org/2000/svg" viewBox="0 0 361 405.07"><defs><style>.cls-1{opacity:0.6;}.cls-2{fill:#f4f4f4;}.cls-3{fill:#fff;}</style></defs><title>them-bg</title><g id="Layer_2" data-name="Layer 2"><g id="Layer_1-2" data-name="Layer 1"><g class="cls-1"><path class="cls-2" d="M67,50.21l9.1-3.54-4.88-1.74-.53-13,11.12,1.1L71.19,22.47,50,43.68,65.61,59.31Zm-3.73-3.52a4,4,0,1,1,1.19-2.84A3.88,3.88,0,0,1,63.26,46.69Z"/><path class="cls-2" d="M67.19,173.47,46,194.68l15.63,15.63,1.38-9.1,9.1-3.54-4.88-1.74-.53-13,11.12,1.1Zm-7.93,24.22a4,4,0,1,1,1.19-2.84A3.88,3.88,0,0,1,59.26,197.69Z"/><path class="cls-2" d="M60.19,327.47,39,348.68l15.63,15.63,1.38-9.1,9.1-3.54-4.88-1.74-.53-13,11.12,1.1Zm-7.93,24.22a4,4,0,1,1,1.19-2.84A3.88,3.88,0,0,1,52.26,351.69Z"/><path class="cls-2" d="M143.49,120.71l9.1-3.54-4.88-1.74-.53-13,11.12,1.1L147.69,93l-21.21,21.21,15.63,15.63Zm-3.73-3.52a4,4,0,1,1,1.19-2.84A3.88,3.88,0,0,1,139.76,117.19Z"/><path class="cls-2" d="M214.19,319.47,193,340.68l15.63,15.63,1.38-9.1,9.1-3.54-4.88-1.74-.53-13,11.12,1.1Zm-7.93,24.22a4,4,0,1,1,1.19-2.84A3.88,3.88,0,0,1,206.26,343.69Z"/><path class="cls-2" d="M297.49,112.71l9.1-3.54-4.88-1.74-.53-13,11.12,1.1L301.69,85l-21.21,21.21,15.63,15.63Zm-3.73-3.52a4,4,0,1,1,1.19-2.84A3.88,3.88,0,0,1,293.76,109.19Z"/><path class="cls-2" d="M140.69,247l-21.21,21.21,15.63,15.63,1.38-9.1,9.1-3.54-4.88-1.74-.53-13,11.12,1.1Zm-7.93,24.22a4,4,0,1,1,1.19-2.84A3.88,3.88,0,0,1,132.76,271.19Z"/><path class="cls-2" d="M221,42.21l9.1-3.54-4.88-1.74-.53-13,11.12,1.1-10.61-10.6L204,35.68l15.63,15.63Zm-3.73-3.52a4,4,0,1,1,1.19-2.84A3.88,3.88,0,0,1,217.26,38.69Z"/><path class="cls-2" d="M361,0H0V405H3.26l-1.34-1.34L36.56,369,38,370.42,3.4,405H361ZM301.7,81.26a1.32,1.32,0,0,1,.93.4l21.46,21.46a1.32,1.32,0,0,1,.4.93,1.28,1.28,0,0,1-.4.94l-23.58,23.59a1.31,1.31,0,0,1-.94.38,1.27,1.27,0,0,1-.93-.38l-21.47-21.47a1.27,1.27,0,0,1-.38-.93,1.31,1.31,0,0,1,.38-.94l23.59-23.58A1.28,1.28,0,0,1,301.7,81.26ZM164.33,243.07l-1.41-1.41L197.56,207l1.42,1.41Zm30.06,76.4L193,320.88l-34.65-34.65,1.42-1.41Zm2.28-131.86a1.27,1.27,0,0,1-.38-.93,1.31,1.31,0,0,1,.38-.94l23.59-23.58a1.28,1.28,0,0,1,.94-.4,1.32,1.32,0,0,1,.93.4l21.46,21.46a1.32,1.32,0,0,1,.4.93,1.28,1.28,0,0,1-.4.94L220,209.08a1.31,1.31,0,0,1-.94.38,1.27,1.27,0,0,1-.93-.38Zm-31.34-55.38,1.42-1.41,34.64,34.65L200,166.88Zm74.95,72.13L274.93,239l-1.41,1.42-34.65-34.65Zm2.89-40.13-1.41-1.42,34.65-34.64,1.41,1.41Zm37.31-77.85L245.83,51.73l1.42-1.41L281.89,85ZM200.67,34.74l23.59-23.58a1.28,1.28,0,0,1,.94-.4,1.32,1.32,0,0,1,.93.4l21.46,21.46a1.32,1.32,0,0,1,.4.93,1.28,1.28,0,0,1-.4.94L224,58.08a1.31,1.31,0,0,1-.94.38,1.27,1.27,0,0,1-.93-.38L200.67,36.61a1.27,1.27,0,0,1-.38-.93A1.31,1.31,0,0,1,200.67,34.74Zm2.24,20.93,1.41,1.41L169.67,91.73l-1.41-1.42ZM147.7,89.26a1.32,1.32,0,0,1,.93.4l21.46,21.46a1.32,1.32,0,0,1,.4.93,1.28,1.28,0,0,1-.4.94l-23.58,23.59a1.31,1.31,0,0,1-.94.38,1.27,1.27,0,0,1-.93-.38l-21.47-21.47a1.27,1.27,0,0,1-.38-.93,1.31,1.31,0,0,1,.38-.94l23.59-23.58A1.28,1.28,0,0,1,147.7,89.26ZM86.28,212.36,120.93,247l-1.41,1.42L84.87,213.77ZM66,217.08a1.31,1.31,0,0,1-.94.38,1.27,1.27,0,0,1-.93-.38L42.67,195.61a1.27,1.27,0,0,1-.38-.93,1.31,1.31,0,0,1,.38-.94l23.59-23.58a1.28,1.28,0,0,1,.94-.4,1.32,1.32,0,0,1,.93.4l21.46,21.46a1.32,1.32,0,0,1,.4.93,1.28,1.28,0,0,1-.4.94Zm23.16-44.85-1.41-1.42,34.65-34.64,1.41,1.41Zm37.31-77.85L91.83,59.73l1.42-1.41L127.89,93ZM46.67,42.74,70.26,19.16a1.28,1.28,0,0,1,.94-.4,1.32,1.32,0,0,1,.93.4L93.59,40.62a1.32,1.32,0,0,1,.4.93,1.28,1.28,0,0,1-.4.94L70,66.08a1.31,1.31,0,0,1-.94.38,1.27,1.27,0,0,1-.93-.38L46.67,44.61a1.27,1.27,0,0,1-.38-.93A1.31,1.31,0,0,1,46.67,42.74ZM12.75,138.82l34.64,34.65L46,174.88,11.33,140.23ZM43.56,215,45,216.42,10.33,251.07l-1.41-1.41ZM5.75,292.82l34.64,34.65L39,328.88,4.33,294.23Zm52.32,78.64a1.27,1.27,0,0,1-.93-.38L35.67,349.61a1.27,1.27,0,0,1-.38-.93,1.31,1.31,0,0,1,.38-.94l23.59-23.58a1.28,1.28,0,0,1,.94-.4,1.32,1.32,0,0,1,.93.4l21.46,21.46a1.32,1.32,0,0,1,.4.93,1.28,1.28,0,0,1-.4.94L59,371.08A1.31,1.31,0,0,1,58.07,371.46Zm54.45,31L77.87,367.77l1.41-1.41L113.93,401ZM82.17,326.23l-1.41-1.42,34.65-34.64,1.41,1.41ZM138.57,291a1.27,1.27,0,0,1-.93-.38l-21.47-21.47a1.27,1.27,0,0,1-.38-.93,1.31,1.31,0,0,1,.38-.94l23.59-23.58a1.28,1.28,0,0,1,.94-.4,1.32,1.32,0,0,1,.93.4l21.46,21.46a1.32,1.32,0,0,1,.4.93,1.28,1.28,0,0,1-.4.94l-23.58,23.59A1.31,1.31,0,0,1,138.57,291Zm18.76,106.11-1.41-1.41L190.56,361l1.42,1.41Zm54.74-33.61a1.27,1.27,0,0,1-.93-.38l-21.47-21.47a1.27,1.27,0,0,1-.38-.93,1.31,1.31,0,0,1,.38-.94l23.59-23.58a1.28,1.28,0,0,1,.94-.4,1.32,1.32,0,0,1,.93.4l21.46,21.46a1.32,1.32,0,0,1,.4.93,1.28,1.28,0,0,1-.4.94L213,363.08A1.31,1.31,0,0,1,212.07,363.46Zm54.45,31-34.65-34.65,1.41-1.41L267.93,393Zm-30.35-76.19-1.41-1.42,34.65-34.64,1.41,1.41ZM292.57,283a1.27,1.27,0,0,1-.93-.38l-21.47-21.47a1.27,1.27,0,0,1-.38-.93,1.31,1.31,0,0,1,.38-.94l23.59-23.58a1.28,1.28,0,0,1,.94-.4,1.32,1.32,0,0,1,.93.4l21.46,21.46a1.32,1.32,0,0,1,.4.93,1.28,1.28,0,0,1-.4.94l-23.58,23.59A1.31,1.31,0,0,1,292.57,283Zm54.45,31-34.65-34.65,1.41-1.41,34.65,34.64Zm-30.35-76.19-1.41-1.42,34.65-34.64,1.41,1.41ZM354,159.92l-34.65-34.65,1.41-1.41,34.65,34.64ZM323.67,83.73l-1.41-1.42,34.65-34.64,1.41,1.41Z"/><path class="cls-2" d="M221.21,187.93l-.53-13,11.12,1.1-10.61-10.6L200,186.68l15.63,15.63,1.38-9.1,9.1-3.54Zm-8,1.76a4,4,0,1,1,1.19-2.84A3.88,3.88,0,0,1,213.26,189.69Z"/><path class="cls-2" d="M294.69,239l-21.21,21.21,15.63,15.63,1.38-9.1,9.1-3.54-4.88-1.74-.53-13,11.12,1.1Zm-7.93,24.22a4,4,0,1,1,1.19-2.84A3.88,3.88,0,0,1,286.76,263.19Z"/><rect class="cls-3" x="182.36" y="124.35" width="2" height="49" transform="translate(-51.55 173.25) rotate(-45)"/><rect class="cls-3" x="255.9" y="197.89" width="2" height="49" transform="translate(-82.01 246.79) rotate(-45)"/><rect class="cls-3" x="235.29" y="145.2" width="49" height="2" transform="translate(-27.29 226.52) rotate(-45)"/><rect class="cls-3" x="156.45" y="224.04" width="49" height="2" transform="translate(-106.13 193.86) rotate(-45)"/><path class="cls-3" d="M210.42,182.82a4.06,4.06,0,1,0,2.84,1.19A3.87,3.87,0,0,0,210.42,182.82Z"/><path class="cls-3" d="M219.07,209.46a1.31,1.31,0,0,0,.94-.38l23.58-23.59a1.28,1.28,0,0,0,.4-.94,1.32,1.32,0,0,0-.4-.93l-21.46-21.46a1.32,1.32,0,0,0-.93-.4,1.28,1.28,0,0,0-.94.4l-23.59,23.58a1.31,1.31,0,0,0-.38.94,1.27,1.27,0,0,0,.38.93l21.47,21.47A1.27,1.27,0,0,0,219.07,209.46Zm-3.46-7.15L200,186.68l21.21-21.21,10.61,10.6L220.68,175l.53,13,4.88,1.74-9.1,3.54Z"/><rect class="cls-3" x="262.86" y="43.85" width="2" height="49" transform="translate(28.95 206.6) rotate(-45)"/><rect class="cls-3" x="336.4" y="117.39" width="2" height="49" transform="translate(-1.51 280.14) rotate(-45)"/><rect class="cls-3" x="315.79" y="64.7" width="49" height="2" transform="translate(53.21 259.86) rotate(-45)"/><path class="cls-3" d="M276.79,106.18a1.27,1.27,0,0,0,.38.93l21.47,21.47a1.27,1.27,0,0,0,.93.38,1.31,1.31,0,0,0,.94-.38L324.09,105a1.28,1.28,0,0,0,.4-.94,1.32,1.32,0,0,0-.4-.93L302.63,81.66a1.32,1.32,0,0,0-.93-.4,1.28,1.28,0,0,0-.94.4l-23.59,23.58A1.31,1.31,0,0,0,276.79,106.18ZM301.69,85l10.61,10.6-11.12-1.1.53,13,4.88,1.74-9.1,3.54-1.38,9.1-15.63-15.63Z"/><path class="cls-3" d="M290.92,102.32a4.06,4.06,0,1,0,2.84,1.19A3.87,3.87,0,0,0,290.92,102.32Z"/><rect class="cls-3" x="28.36" y="132.35" width="2" height="49" transform="translate(-102.31 66.7) rotate(-45)"/><rect class="cls-3" x="101.9" y="205.89" width="2" height="49" transform="translate(-132.77 140.24) rotate(-45)"/><rect class="cls-3" x="81.29" y="153.2" width="49" height="2" transform="translate(-78.05 119.97) rotate(-45)"/><rect class="cls-3" x="2.45" y="232.04" width="49" height="2" transform="translate(-156.89 87.31) rotate(-45)"/><path class="cls-3" d="M90,192.55a1.32,1.32,0,0,0-.4-.93L68.13,170.16a1.32,1.32,0,0,0-.93-.4,1.28,1.28,0,0,0-.94.4L42.67,193.74a1.31,1.31,0,0,0-.38.94,1.27,1.27,0,0,0,.38.93l21.47,21.47a1.27,1.27,0,0,0,.93.38,1.31,1.31,0,0,0,.94-.38l23.58-23.59A1.28,1.28,0,0,0,90,192.55Zm-22.78,3.38,4.88,1.74L63,201.21l-1.38,9.1L46,194.68l21.21-21.21,10.61,10.6L66.68,183Z"/><path class="cls-3" d="M56.42,190.82A4.06,4.06,0,1,0,59.26,192,3.87,3.87,0,0,0,56.42,190.82Z"/><path class="cls-3" d="M214.42,31.82A4.06,4.06,0,1,0,217.26,33,3.87,3.87,0,0,0,214.42,31.82Z"/><path class="cls-3" d="M222.14,58.08a1.27,1.27,0,0,0,.93.38,1.31,1.31,0,0,0,.94-.38l23.58-23.59a1.28,1.28,0,0,0,.4-.94,1.32,1.32,0,0,0-.4-.93L226.13,11.16a1.32,1.32,0,0,0-.93-.4,1.28,1.28,0,0,0-.94.4L200.67,34.74a1.31,1.31,0,0,0-.38.94,1.27,1.27,0,0,0,.38.93Zm3.05-43.61,10.61,10.6L224.68,24l.53,13,4.88,1.74L221,42.21l-1.38,9.1L204,35.68Z"/><path class="cls-3" d="M68.14,66.08a1.27,1.27,0,0,0,.93.38,1.31,1.31,0,0,0,.94-.38L93.59,42.49a1.28,1.28,0,0,0,.4-.94,1.32,1.32,0,0,0-.4-.93L72.13,19.16a1.32,1.32,0,0,0-.93-.4,1.28,1.28,0,0,0-.94.4L46.67,42.74a1.31,1.31,0,0,0-.38.94,1.27,1.27,0,0,0,.38.93Zm3-43.61L81.8,33.07,70.68,32l.53,13,4.88,1.74L67,50.21l-1.38,9.1L50,43.68Z"/><path class="cls-3" d="M60.42,39.82A4.06,4.06,0,1,0,63.26,41,3.87,3.87,0,0,0,60.42,39.82Z"/><rect class="cls-3" x="108.86" y="51.85" width="2" height="49" transform="translate(-21.81 100.05) rotate(-45)"/><rect class="cls-3" x="161.79" y="72.7" width="49" height="2" transform="translate(2.45 153.31) rotate(-45)"/><path class="cls-3" d="M136.92,110.32a4.06,4.06,0,1,0,2.84,1.19A3.87,3.87,0,0,0,136.92,110.32Z"/><path class="cls-3" d="M122.79,114.18a1.27,1.27,0,0,0,.38.93l21.47,21.47a1.27,1.27,0,0,0,.93.38,1.31,1.31,0,0,0,.94-.38L170.09,113a1.28,1.28,0,0,0,.4-.94,1.32,1.32,0,0,0-.4-.93L148.63,89.66a1.32,1.32,0,0,0-.93-.4,1.28,1.28,0,0,0-.94.4l-23.59,23.58A1.31,1.31,0,0,0,122.79,114.18ZM147.69,93l10.61,10.6-11.12-1.1.53,13,4.88,1.74-9.1,3.54-1.38,9.1-15.63-15.63Z"/><rect class="cls-3" x="175.36" y="278.35" width="2" height="49" transform="translate(-162.49 213.41) rotate(-45)"/><rect class="cls-3" x="248.9" y="351.89" width="2" height="49" transform="translate(-192.95 286.95) rotate(-45)"/><rect class="cls-3" x="228.29" y="299.2" width="49" height="2" transform="translate(-138.23 266.67) rotate(-45)"/><rect class="cls-3" x="149.45" y="378.04" width="49" height="2" transform="translate(-217.07 234.02) rotate(-45)"/><path class="cls-3" d="M203.42,336.82a4.06,4.06,0,1,0,2.84,1.19A3.87,3.87,0,0,0,203.42,336.82Z"/><path class="cls-3" d="M237,338.55a1.32,1.32,0,0,0-.4-.93l-21.46-21.46a1.32,1.32,0,0,0-.93-.4,1.28,1.28,0,0,0-.94.4l-23.59,23.58a1.31,1.31,0,0,0-.38.94,1.27,1.27,0,0,0,.38.93l21.47,21.47a1.27,1.27,0,0,0,.93.38,1.31,1.31,0,0,0,.94-.38l23.58-23.59A1.28,1.28,0,0,0,237,338.55Zm-22.78,3.38,4.88,1.74-9.1,3.54-1.38,9.1L193,340.68l21.21-21.21,10.61,10.6L213.68,329Z"/><rect class="cls-3" x="329.4" y="271.39" width="2" height="49" transform="translate(-112.45 320.29) rotate(-45)"/><rect class="cls-3" x="308.79" y="218.7" width="49" height="2" transform="translate(-57.73 300.02) rotate(-45)"/><path class="cls-3" d="M317.49,258.05a1.32,1.32,0,0,0-.4-.93l-21.46-21.46a1.32,1.32,0,0,0-.93-.4,1.28,1.28,0,0,0-.94.4l-23.59,23.58a1.31,1.31,0,0,0-.38.94,1.27,1.27,0,0,0,.38.93l21.47,21.47a1.27,1.27,0,0,0,.93.38,1.31,1.31,0,0,0,.94-.38L317.09,259A1.28,1.28,0,0,0,317.49,258.05Zm-22.78,3.38,4.88,1.74-9.1,3.54-1.38,9.1-15.63-15.63L294.69,239l10.61,10.6-11.12-1.1Z"/><path class="cls-3" d="M283.92,256.32a4.06,4.06,0,1,0,2.84,1.19A3.87,3.87,0,0,0,283.92,256.32Z"/><rect class="cls-3" x="21.36" y="286.35" width="2" height="49" transform="translate(-213.25 106.86) rotate(-45)"/><rect class="cls-3" x="94.9" y="359.89" width="2" height="49" transform="translate(-243.71 180.4) rotate(-45)"/><rect class="cls-3" x="74.29" y="307.2" width="49" height="2" transform="translate(-188.99 160.12) rotate(-45)"/><polygon class="cls-3" points="36.56 369.01 1.92 403.66 3.26 405 3.33 405.07 3.4 405 37.98 370.42 36.56 369.01"/><path class="cls-3" d="M49.42,344.82A4.06,4.06,0,1,0,52.26,346,3.87,3.87,0,0,0,49.42,344.82Z"/><path class="cls-3" d="M83,346.55a1.32,1.32,0,0,0-.4-.93L61.13,324.16a1.32,1.32,0,0,0-.93-.4,1.28,1.28,0,0,0-.94.4L35.67,347.74a1.31,1.31,0,0,0-.38.94,1.27,1.27,0,0,0,.38.93l21.47,21.47a1.27,1.27,0,0,0,.93.38,1.31,1.31,0,0,0,.94-.38l23.58-23.59A1.28,1.28,0,0,0,83,346.55Zm-22.78,3.38,4.88,1.74L56,355.21l-1.38,9.1L39,348.68l21.21-21.21,10.61,10.6L59.68,337Z"/><path class="cls-3" d="M129.92,264.32a4.06,4.06,0,1,0,2.84,1.19A3.87,3.87,0,0,0,129.92,264.32Z"/><path class="cls-3" d="M163.49,266.05a1.32,1.32,0,0,0-.4-.93l-21.46-21.46a1.32,1.32,0,0,0-.93-.4,1.28,1.28,0,0,0-.94.4l-23.59,23.58a1.31,1.31,0,0,0-.38.94,1.27,1.27,0,0,0,.38.93l21.47,21.47a1.27,1.27,0,0,0,.93.38,1.31,1.31,0,0,0,.94-.38L163.09,267A1.28,1.28,0,0,0,163.49,266.05Zm-22.78,3.38,4.88,1.74-9.1,3.54-1.38,9.1-15.63-15.63L140.69,247l10.61,10.6-11.12-1.1Z"/></g></g></g></svg>