<svg xmlns="http://www.w3.org/2000/svg" viewBox="0 0 248 367"><defs><style>.cls-1{opacity:0.85;}.cls-2{fill:#fdfdeb;}.cls-3{fill:#fcfcdc;}</style></defs><title>us-bg</title><g id="Layer_2" data-name="Layer 2"><g id="Layer_1-2" data-name="Layer 1"><g class="cls-1"><polygon class="cls-2" points="0 351.55 56.37 367 79.04 367 0 332.52 0 351.55"/><polygon class="cls-2" points="0 367 34.95 367 0 360.29 0 367"/><polygon class="cls-2" points="127.79 367 248 258.41 248 216.7 123.36 367 127.79 367"/><polygon class="cls-2" points="122.6 0 112.65 367 115.25 367 178.61 0 122.6 0"/><polygon class="cls-2" points="37.13 0 109.48 367 112.14 367 93.48 0 37.13 0"/><polygon class="cls-2" points="122.47 367 248 189.08 248 113.77 119.18 367 122.47 367"/><polygon class="cls-2" points="0 230.18 101.47 367 105.15 367 0 171.87 0 230.18"/><polygon class="cls-2" points="0 285.11 95.09 367 100.3 367 0 251.72 0 285.11"/><polygon class="cls-2" points="0 322.27 84.03 367 92.98 367 0 298.77 0 322.27"/><polygon class="cls-2" points="0 0 0 127.49 105.92 367 108.9 367 6.33 0 0 0"/><polygon class="cls-2" points="248 367 248 350.21 170.48 367 248 367"/><polygon class="cls-2" points="136.52 367 248 304.22 248 275.52 129.33 367 136.52 367"/><polygon class="cls-2" points="156.73 367 248 339.65 248 316.83 140.03 367 156.73 367"/><polygon class="cls-2" points="209.03 0 115.78 367 118.56 367 248 54.49 248 0 209.03 0"/><polygon class="cls-3" points="0 360.29 34.95 367 56.37 367 0 351.55 0 360.29"/><polygon class="cls-3" points="0 332.52 79.04 367 84.03 367 0 322.27 0 332.52"/><polygon class="cls-3" points="0 298.77 92.98 367 95.09 367 0 285.11 0 298.77"/><polygon class="cls-3" points="0 251.72 100.3 367 101.47 367 0 230.18 0 251.72"/><polygon class="cls-3" points="0 171.87 105.15 367 105.92 367 0 127.49 0 171.87"/><polygon class="cls-3" points="6.33 0 108.9 367 109.48 367 37.13 0 6.33 0"/><polygon class="cls-3" points="93.48 0 112.14 367 112.65 367 122.6 0 93.48 0"/><polygon class="cls-3" points="178.61 0 115.25 367 115.78 367 209.03 0 178.61 0"/><polygon class="cls-3" points="119.18 367 248 113.77 248 54.49 118.56 367 119.18 367"/><polygon class="cls-3" points="123.36 367 248 216.7 248 189.08 122.47 367 123.36 367"/><polygon class="cls-3" points="129.33 367 248 275.52 248 258.41 127.79 367 129.33 367"/><polygon class="cls-3" points="140.03 367 248 316.83 248 304.22 136.52 367 140.03 367"/><polygon class="cls-3" points="170.48 367 248 350.21 248 339.65 156.73 367 170.48 367"/></g></g></g></svg>