<svg xmlns="http://www.w3.org/2000/svg" xmlns:xlink="http://www.w3.org/1999/xlink" viewBox="0 0 753.7 417.85"><defs><style>.cls-1{fill:none;}.cls-2{fill:url(#linear-gradient);}.cls-3{fill:url(#linear-gradient-2);}.cls-4{fill:url(#linear-gradient-3);}.cls-5{fill:url(#linear-gradient-4);}.cls-6{opacity:0.21;}.cls-7{fill:#fff;}.cls-8{fill:#004e7a;}.cls-9{fill:url(#linear-gradient-5);}.cls-10{fill:url(#linear-gradient-6);}.cls-11{fill:#29abe2;}.cls-12{clip-path:url(#clip-path);}.cls-13{fill:#f7931e;}.cls-14{clip-path:url(#clip-path-2);}</style><linearGradient id="linear-gradient" x1="309.2" y1="-226.21" x2="132.53" y2="363.79" gradientUnits="userSpaceOnUse"><stop offset="0" stop-color="#577b97"/><stop offset="1" stop-color="#20385e"/></linearGradient><linearGradient id="linear-gradient-2" x1="683.4" y1="-114.16" x2="506.74" y2="475.84" xlink:href="#linear-gradient"/><linearGradient id="linear-gradient-3" x1="133.38" y1="364.33" x2="264.71" y2="-95.67" gradientUnits="userSpaceOnUse"><stop offset="0" stop-color="#2e3192"/><stop offset="0.25" stop-color="#0071bc"/><stop offset="0.89" stop-color="#29abe2"/><stop offset="1" stop-color="aqua"/></linearGradient><linearGradient id="linear-gradient-4" x1="509.41" y1="471.69" x2="640.75" y2="11.69" xlink:href="#linear-gradient-3"/><linearGradient id="linear-gradient-5" x1="134.75" y1="374.29" x2="247.75" y2="-35.71" gradientUnits="userSpaceOnUse"><stop offset="0" stop-color="#f76fb7"/><stop offset="1" stop-color="#93278f"/></linearGradient><linearGradient id="linear-gradient-6" x1="511.56" y1="478.14" x2="624.56" y2="68.14" xlink:href="#linear-gradient-5"/><clipPath id="clip-path"><path class="cls-1" d="M422.36,54.78q-7,.72-20.18,3.26t-22.12,8.83q-9.18,6-12.93,21.75t-3.74,47.13V263.38q0,56.33-38.2,90.64t-101,34.33q-73.24,0-113.37-33.12T70.67,262.9V87.41a30.07,30.07,0,0,0-3.27-14.5Q64.15,66.86,55,62A65,65,0,0,0,39.49,57Q30.3,55,24.5,54.3V35.93H204.34V54.3a154.7,154.7,0,0,0-15.71,1.81,113.8,113.8,0,0,0-16.2,4q-9.19,2.9-12.33,9.67A35.8,35.8,0,0,0,157,85V258.06q0,51,22.45,74.21t65.17,23.2q42,0,65.9-25.62t23.9-75.41V138.17q0-30.93-4.23-46.29T317.22,69.77q-6.29-5.33-21.88-9.67t-21.87-5.32V35.93H422.36Z"/></clipPath><clipPath id="clip-path-2"><path class="cls-1" d="M583.83,388.35a210.3,210.3,0,0,1-58.62-7.86q-27.18-7.85-46-18.49l-16.68,16.92H441.94l-3.14-124h20.79a322.46,322.46,0,0,0,17.89,37.31,182.21,182.21,0,0,0,25.13,35.13,129.8,129.8,0,0,0,33,26.4q18.25,10.17,42.66,10.17,32.87,0,50.4-16.08t17.53-40.52a44,44,0,0,0-14.87-33.75Q616.46,259.92,585.28,250q-20.31-6.56-37.34-12.14t-32-11.41q-34.57-13.8-51.37-39.45T447.75,129.6a89.72,89.72,0,0,1,8.7-38.6,102.54,102.54,0,0,1,25.38-33.28q15.94-13.78,40.85-22.51t54.14-8.71a174.08,174.08,0,0,1,53.42,8q24.88,8,39.16,16l14.74-14.5h21l1.94,117H686.32q-7.25-18.9-17-38.65T648.61,81.44A94,94,0,0,0,621.3,59Q605.82,50.68,585,50.67q-26.1,0-42.66,14.77T525.82,102q0,20.58,14.38,33.65t44.84,23q17.88,6.06,36.5,12.1t33.12,11.62q35,13.56,53.29,37.4T726.2,279A95.29,95.29,0,0,1,715.81,322a99.88,99.88,0,0,1-28,34.61,142.4,142.4,0,0,1-44.72,23.48Q617.67,388.34,583.83,388.35Z"/></clipPath></defs><title>Asset 2</title><g id="Layer_2" data-name="Layer 2"><g id="Layer_1-2" data-name="Layer 1"><path class="cls-2" d="M226.16,417.85c-54.93,0-98.74-13.18-130.24-39.18-33-27.24-49.75-65.19-49.75-112.77V90.41c0-.42,0-.77,0-1.06-.33-.21-.74-.45-1.25-.72A39.75,39.75,0,0,0,36,85.89c-5.31-1.12-9.74-1.91-12.81-2.3L0,80.69V12.43H232.84V82.18L208,83.74c-4.23.27-8.62.78-13,1.51a86.39,86.39,0,0,0-9.49,2.18c0,.18,0,.37,0,.56V261.06c0,26.36,5.19,45.65,15,55.78S225.69,332,246.58,332s35.58-5.46,46.52-17.19c11.13-11.94,16.78-31.23,16.78-57.34V141.17c0-22.6-1.78-33.82-3.28-39.25-1.79-6.51-3.68-8.26-3.7-8.28l-.63-.51c-.34-.22-3.32-2.07-12-4.51-12.69-3.54-17.37-4.43-18.79-4.65L249,80.51V12.43H450.86V81.68l-23.77,2.46c-2.68.28-8,1-17.89,2.92-5.05,1-9.05,2.48-11.9,4.49l-.14.09a20.08,20.08,0,0,0-2.25,6.13c-1.38,5.78-3,17.58-3,41V266.38c0,45.21-15.81,82.34-47,110.36C314.55,404,274.6,417.85,226.16,417.85ZM8,73.63l16.2,2c3.29.41,7.94,1.25,13.47,2.41a47.4,47.4,0,0,1,10.77,3.4l.15.08A22.89,22.89,0,0,1,52.37,84l.89.76.34,1.12a15.52,15.52,0,0,1,.57,4.53V265.9c0,45.08,15.76,81,46.85,106.6,30,24.78,72.12,37.35,125.14,37.35,46.4,0,84.56-13.14,113.4-39.07,29.41-26.43,44.33-61.55,44.33-104.4V138.75c0-24.18,1.76-36.64,3.24-42.84a30.52,30.52,0,0,1,2.78-7.73l-.41-1L392.75,85c3.73-2.63,8.77-4.57,14.94-5.76,10.21-2,15.74-2.73,18.58-3l16.59-1.71v-54H257V73.65l15.68,2.41c2.37.37,7.72,1.51,19.72,4.86,10.43,2.91,13.94,5.23,14.77,5.87l.78.63c1.38,1.07,4.13,4.18,6.39,12.38,1.63,5.9,3.57,17.88,3.57,41.37V257.44c0,28.2-6.37,49.33-18.93,62.8S269.75,340,246.58,340s-40.6-5.91-51.87-17.56-17.25-32.87-17.25-61.35V88a20.89,20.89,0,0,1,.45-4.49l.5-2.26,2.2-.7a95.39,95.39,0,0,1,13-3.18,136.5,136.5,0,0,1,13.85-1.6l17.34-1.09V20.43H8ZM203.65,373.12l-21.43-4.06c-23.48-4.46-42.88-12.9-57.65-25.1-22.79-18.8-33.4-43.61-33.4-78.06V90.41a48.54,48.54,0,0,0-5.49-23.3,38.42,38.42,0,0,0-2.09-3.41l-4.34-6.27h70l-3.13,5.88c-.3.56-.57,1.12-.82,1.66a54.21,54.21,0,0,0-4.87,23V261.06c0,38.81,9.3,68.11,27.65,87.07a86.68,86.68,0,0,0,16.94,13.59ZM93.8,65.43a57.19,57.19,0,0,1,5.37,25V265.9c0,31.88,9.69,54.73,30.49,71.89,9.7,8,21.62,14.29,35.59,18.77-1-.94-1.94-1.89-2.89-2.86-19.84-20.51-29.9-51.68-29.9-92.64V88a63,63,0,0,1,4-22.56ZM350.21,88.37l-4-9.21a57.56,57.56,0,0,0-9.38-15.09L331,57.43h35.74l-5,6.45a55.17,55.17,0,0,0-8.09,15.05Zm-2.33-22.94c.59.89,1.16,1.81,1.71,2.75.48-.94,1-1.86,1.49-2.75Z"/><path class="cls-3" d="M584.83,414.85a237.68,237.68,0,0,1-66-8.9,282.6,282.6,0,0,1-33.22-11.75l-11.06,11.22H417.11l-4.49-177h55.21a117.66,117.66,0,0,1-24.45-26.95c-14-21.4-21.13-45.58-21.13-71.87a116.5,116.5,0,0,1,11.21-49.88,129.59,129.59,0,0,1,31.8-41.84l.15-.13c13.19-11.41,29.84-20.67,49.51-27.55A190,190,0,0,1,577.82,0a201.41,201.41,0,0,1,61.51,9.24c9.47,3,18.1,6.16,25.68,9.31l9.28-9.12h58l2.81,170H705.28A126.07,126.07,0,0,1,730,203.66c15.74,20.55,23.71,45.88,23.71,75.29a122.06,122.06,0,0,1-13.18,54.92,126.89,126.89,0,0,1-35.42,43.65,169.46,169.46,0,0,1-52.88,27.81C632.73,411.65,610.06,414.85,584.83,414.85Zm-101-30.21,2.53,1.13a268.66,268.66,0,0,0,34.72,12.5,230.13,230.13,0,0,0,63.75,8.58c24.39,0,46.23-3.07,64.93-9.13a161.22,161.22,0,0,0,50.39-26.5,118.87,118.87,0,0,0,33.21-40.93A114.11,114.11,0,0,0,745.7,279c0-27.61-7.42-51.3-22.06-70.43a123.46,123.46,0,0,0-33.44-29.7l-12-7.4h48.7l-2.55-154h-46.8L666.81,28,664.34,27c-7.93-3.4-17.17-6.8-27.45-10.09A193.34,193.34,0,0,0,577.82,8a182,182,0,0,0-60.25,9.75c-18.72,6.55-34.5,15.31-46.91,26l-.11.1A121.55,121.55,0,0,0,440.7,83.13a108.46,108.46,0,0,0-10.45,46.47c0,24.71,6.66,47.41,19.82,67.49,13.27,20.27,33.47,35.92,60.05,46.52l.1,0c10.19,4,21.29,7.92,32.95,11.75,11.5,3.77,24.11,7.87,37.49,12.18,22.56,7.2,33.74,14.64,39.15,19.62a25.73,25.73,0,0,1,8.89,20.13c0,11.12-3.67,19.66-11.54,26.89-8.11,7.44-20.85,11.21-37.89,11.21-13,0-24.33-2.63-33.66-7.83a112.39,112.39,0,0,1-28.4-22.79,164.29,164.29,0,0,1-22.55-31.55,305.54,305.54,0,0,1-16.87-35.15l-4.63-11.69H420.83l4.08,161h46.32Zm-1.07-145.7,2.47,6.22a298.4,298.4,0,0,0,16.42,34.22,156.48,156.48,0,0,0,21.47,30,104.38,104.38,0,0,0,26.39,21.19c8.12,4.53,18.13,6.82,29.76,6.82,15,0,25.9-3.06,32.48-9.1,6.27-5.76,9-12,9-21a17.76,17.76,0,0,0-6.31-14.24c-4.81-4.43-15-11.13-36.17-17.89-13.4-4.32-26-8.43-37.54-12.2-11.8-3.87-23-7.87-33.38-11.9l-.13,0A161.81,161.81,0,0,1,482.76,238.94Zm162.1,122.3,8.74-13c8-11.93,12.1-25.7,12.1-40.92A62.85,62.85,0,0,0,644.85,260c-12-11.06-29.32-20.09-52.88-27.61-13.44-4.33-26-8.41-37.27-12.11-11-3.6-21.41-7.31-31-11h0C504.4,201.48,490,190.59,481,176.82a84.66,84.66,0,0,1-13.77-47.22,71.7,71.7,0,0,1,6.94-30.73A84.56,84.56,0,0,1,495,71.69a92.67,92.67,0,0,1,19.32-12.55l13.5-6.68L519.37,65a65.2,65.2,0,0,0-11.05,37c0,18.82,7.07,35.19,20.43,47.34,11.64,10.58,28.45,19.37,51.4,26.85,12,4.05,24.3,8.14,36.67,12.16,12,3.9,22.83,7.7,32.15,11.27,20,7.76,35.28,18.32,45.29,31.39,9.59,12.52,14.44,28.65,14.44,47.94a77.43,77.43,0,0,1-8.44,34.81,82.19,82.19,0,0,1-23,28.36A116.47,116.47,0,0,1,658.76,354ZM526.65,201.76c9.42,3.66,19.7,7.32,30.54,10.88,11.28,3.7,23.81,7.77,37.23,12.1,24.67,7.88,42.94,17.47,55.84,29.33a70.68,70.68,0,0,1,23.44,53.26,82.08,82.08,0,0,1-6.3,32.18c1.7-1.19,3.36-2.41,5-3.68a74.24,74.24,0,0,0,20.74-25.64A69.46,69.46,0,0,0,700.7,279c0-17.49-4.3-32-12.79-43.07-9.1-11.89-23.17-21.58-41.82-28.79-9.18-3.52-19.86-7.27-31.75-11.13-12.4-4-24.75-8.13-36.72-12.18-24-7.82-41.76-17.16-54.25-28.52-15.08-13.71-23.05-32.13-23.05-53.26a74.62,74.62,0,0,1,5.51-28.64c-2,1.4-3.87,2.86-5.61,4.35a76.53,76.53,0,0,0-18.79,24.56,63.85,63.85,0,0,0-6.18,27.33,76.82,76.82,0,0,0,12.46,42.84C495.81,184.8,508.91,194.67,526.65,201.76Zm-65.8,153.49-1.48-58.4,7.78,12.67a201.06,201.06,0,0,0,18.43,25.38l14.76,17.24-23.41-13.21Zm7.25-29.79.27,10.76,4.38-4.45Q470.38,328.68,468.1,325.46ZM674,169.83l-8.54-3.47c-1.05-.43-2.11-.85-3.18-1.27-10-3.82-21.42-7.84-34-11.93-12.33-4-24.56-8.06-36.37-12.06l-.14,0c-22-7.17-32.89-14.34-38.11-19.09-5.67-5.16-8.32-11.5-8.32-20,0-9.21,3.3-16.44,10.37-22.75C563.4,72.37,573,69.17,586,69.17c10.69,0,19.92,2.06,27.46,6.13a75.84,75.84,0,0,1,21.9,18c6.31,7.61,12.46,17.42,18.3,29.2,6.26,12.64,11.76,25.1,16.35,37.06ZM586,77.17c-10.92,0-18.87,2.56-25,8-5.4,4.81-7.7,9.83-7.7,16.78,0,6.21,1.71,10.41,5.71,14,4.64,4.22,14.51,10.67,35.22,17.42l.19.06c11.79,4,24,8,36.29,12,10.58,3.44,20.37,6.83,29.18,10.1C656,146,651.51,136.08,646.53,126c-5.56-11.23-11.37-20.52-17.27-27.62a67.7,67.7,0,0,0-19.57-16.08C603.34,78.91,595.38,77.17,586,77.17ZM688.88,109,681.13,95.2c-3.08-5.48-6.28-10.64-9.54-15.34l-1.92-2.77L688.05,59ZM680.06,78.1l.31.47V77.8Z"/><path class="cls-4" d="M224.16,412.85c-54,0-96.93-12.88-127.69-38.27-32-26.44-48.3-63.35-48.3-109.68V89.41a11.9,11.9,0,0,0-.39-3.36,18.7,18.7,0,0,0-3.08-2A44.18,44.18,0,0,0,34.84,81c-5.41-1.14-10-2-13.13-2.35L2,76.16V15.43H226.84v62l-21.09,1.32a134.21,134.21,0,0,0-13.44,1.56,89.6,89.6,0,0,0-12.49,3,16.78,16.78,0,0,0-.36,3.63V260.06c0,27.42,5.57,47.67,16.12,58.57s27,16.34,49,16.34,37.7-5.86,49.45-18.46,17.85-32.91,17.85-60.07V140.17c0-23-1.86-34.64-3.42-40.31-2.14-7.76-4.59-10-5-10.33l-.72-.58c-.09-.07-2.95-2.26-13.4-5.18C276.86,80.3,271.9,79.3,270,79L251,76.08V15.43H444.86V77.07l-20.18,2.09c-2.76.29-8.16,1-18.24,3-5.6,1.08-10.12,2.8-13.44,5.13l-.57.39h0s-1.86,1.66-3.41,8.18c-1.43,6-3.13,18.12-3.13,41.91V265.38c0,44-15.36,80.16-45.66,107.38C310.63,399.36,271.58,412.85,224.16,412.85ZM84.88,60.43a40.71,40.71,0,0,1,2.32,3.78,52.44,52.44,0,0,1,6,25.2V264.9c0,33.17,10.15,57,31.94,75,14.31,11.81,33,19.91,55.85,24.25a90.25,90.25,0,0,1-17.72-14.21c-19.1-19.74-28.78-50-28.78-89.86V87a58.09,58.09,0,0,1,5.24-24.7c.28-.61.59-1.23.92-1.86Zm253,0a61.09,61.09,0,0,1,10,16.14,58.73,58.73,0,0,1,8.69-16.14Z"/><path class="cls-5" d="M582.83,409.85A233.93,233.93,0,0,1,518,401.11a272.12,272.12,0,0,1-35.24-12.68l-11.82,12H419l-4.28-169h59.15l5.63,14.21a300.88,300.88,0,0,0,16.65,34.69,159.77,159.77,0,0,0,22,30.8,108.38,108.38,0,0,0,27.39,22c8.72,4.86,19.39,7.32,31.71,7.32,16,0,27.84-3.41,35.18-10.16,7.09-6.5,10.25-13.89,10.25-23.94a21.72,21.72,0,0,0-7.6-17.19c-5.11-4.7-15.8-11.77-37.66-18.75C564,266.05,551.39,262,539.93,258.2c-11.73-3.85-22.89-7.82-33.18-11.83l-.12,0c-27.35-10.92-48.18-27.08-61.91-48.05-13.58-20.74-20.47-44.18-20.47-69.68a112.55,112.55,0,0,1,10.83-48.18,125.64,125.64,0,0,1,30.83-40.55l.14-.12c12.79-11,29-20.06,48.2-26.77A185.88,185.88,0,0,1,575.82,3a197.27,197.27,0,0,1,60.29,9.05c10.43,3.34,19.74,6.77,27.81,10.23l10-9.85H726.3l2.68,162H690.3a126.8,126.8,0,0,1,34.52,30.67C740,224.93,747.7,249.44,747.7,278a118.07,118.07,0,0,1-12.76,53.13,122.83,122.83,0,0,1-34.31,42.29A165.46,165.46,0,0,1,649,400.52C629.9,406.71,607.64,409.85,582.83,409.85ZM523.19,204.48c9.49,3.69,19.83,7.38,30.76,11,11.27,3.69,23.8,7.77,37.24,12.1,24.11,7.7,41.91,17,54.37,28.47a66.79,66.79,0,0,1,22.14,50.32,76.14,76.14,0,0,1-12.78,43.15A112.34,112.34,0,0,0,672.84,338a78.18,78.18,0,0,0,21.84-27,73.48,73.48,0,0,0,8-33c0-18.39-4.58-33.7-13.61-45.5-9.56-12.49-24.21-22.61-43.55-30.09-9.25-3.55-20-7.32-32-11.21-12.43-4-24.77-8.13-36.67-12.16-23.49-7.66-40.78-16.72-52.85-27.69C509.84,138.37,502.32,121,502.32,101a69.41,69.41,0,0,1,11.73-39.27,87.55,87.55,0,0,0-18.44,12,80.47,80.47,0,0,0-19.8,25.89,67.69,67.69,0,0,0-6.56,29,80.7,80.7,0,0,0,13.12,45C490.92,186.7,504.66,197.08,523.19,204.48ZM461.75,310.61l.86,34.12,11.62-11.79,6.31,3.56A203.22,203.22,0,0,1,461.75,310.61ZM584,72.17c-12,0-20.75,2.88-27.68,9.06-6.25,5.58-9,11.67-9,19.77,0,7.35,2.16,12.59,7,17s15.29,11.29,36.67,18.26l.16.05c11.8,4,24,8.05,36.32,12.05,12.67,4.11,24.18,8.15,34.22,12q1.63.63,3.24,1.29l-.64-1.68c-4.54-11.84-10-24.19-16.19-36.71-5.7-11.5-11.68-21.06-17.78-28.4a72,72,0,0,0-20.74-17C602.66,74.07,594.06,72.17,584,72.17Zm88.84,4.41q5,7.24,9.74,15.66l-.41-24.83Z"/><g class="cls-6"><path class="cls-1" d="M347.87,76.57a58.73,58.73,0,0,1,8.69-16.14H337.83A61.09,61.09,0,0,1,347.87,76.57Z"/><path class="cls-1" d="M672.88,76.58q5,7.24,9.74,15.66l-.41-24.83Z"/><path class="cls-7" d="M93.17,239.6V89.41a52.44,52.44,0,0,0-6-25.2,40.71,40.71,0,0,0-2.32-3.78h55.74c-.33.63-.64,1.25-.92,1.86A58.09,58.09,0,0,0,134.46,87V226.82c14-4.25,29.11-8.71,45-13.28V87a16.78,16.78,0,0,1,.36-3.63,89.6,89.6,0,0,1,12.49-3,134.21,134.21,0,0,1,13.44-1.56l21.09-1.32v-62H2V76.16l19.71,2.46c3.17.4,7.72,1.21,13.13,2.35a44.18,44.18,0,0,1,9.86,3.09,18.7,18.7,0,0,1,3.08,2,11.9,11.9,0,0,1,.39,3.36V254.2C59.35,250.47,74.64,245.46,93.17,239.6Z"/><path class="cls-7" d="M444.86,15.43H251V76.08L270,79c1.86.28,6.82,1.28,19.25,4.75,10.45,2.92,13.31,5.11,13.4,5.18l.72.58c.46.36,2.91,2.57,5,10.33,1.56,5.67,3.42,17.26,3.42,40.31v38.44c24.38-5.79,49.21-11.29,74-16.27V137.75c0-23.79,1.7-35.92,3.13-41.91,1.55-6.51,3.41-8.17,3.41-8.18l.57-.39c3.32-2.33,7.84-4,13.44-5.13,10.08-2,15.48-2.69,18.24-3l11.6-1.2a119.38,119.38,0,0,1,8.58-14.49Zm-97,61.14a61.09,61.09,0,0,0-10-16.14h18.73A58.73,58.73,0,0,0,347.87,76.57Z"/><path class="cls-7" d="M673.93,12.43l-10,9.85c-8.07-3.46-17.38-6.89-27.81-10.23a197.27,197.27,0,0,0-60.29-9,185.88,185.88,0,0,0-61.57,10c-19.2,6.71-35.41,15.72-48.2,26.77l-.14.12a131.3,131.3,0,0,0-21.05,23.6A119.38,119.38,0,0,0,436.28,78c-.4.82-.81,1.64-1.2,2.46a112.55,112.55,0,0,0-10.83,48.18,131.84,131.84,0,0,0,2.55,26c15-2.63,29.86-5,44.51-7.1a85.8,85.8,0,0,1-2.06-18.93,67.69,67.69,0,0,1,6.56-29,80.47,80.47,0,0,1,19.8-25.89,87.55,87.55,0,0,1,18.44-12A69.41,69.41,0,0,0,502.32,101c0,15.57,4.59,29.56,13.34,41.11,14.74-1.48,29.12-2.57,43-3.21q18.68-.85,35.46-1.59l-3-1-.16-.05c-21.38-7-31.74-13.77-36.67-18.26s-7-9.65-7-17c0-8.1,2.79-14.19,9-19.77,6.93-6.18,15.72-9.06,27.68-9.06,10,0,18.62,1.9,25.56,5.65a72,72,0,0,1,20.74,17c6.1,7.34,12.08,16.9,17.78,28.4,1.91,3.85,3.73,7.68,5.5,11.49,31-1.27,55.4-2.19,74.66-2.84l-2-119.48Zm-1,64.15,9.33-9.17.41,24.83Q677.9,83.82,672.88,76.58Z"/></g><path class="cls-8" d="M225.16,395.85C174.77,395.85,135,384.13,107,361c-28.43-23.47-42.85-56.48-42.85-98.12V87.41a23.06,23.06,0,0,0-2.36-10.94c-1.42-2.62-4.63-5.3-9.28-7.76a57.64,57.64,0,0,0-13.59-4.42C33,63.05,28.2,62.19,24.57,61.74L18,60.92V28.43H212.84V61.34l-7,.44a149.87,149.87,0,0,0-15,1.73,106.6,106.6,0,0,0-15.11,3.72c-6.09,1.93-7.4,4.76-7.83,5.69A28.41,28.41,0,0,0,165.46,85V258.06c0,31.83,6.84,55.05,20.34,69S219.34,348,245.58,348c26.07,0,45.83-7.6,60.42-23.23s21.88-39.22,21.88-70.3V138.17c0-19.85-1.33-34.75-4-44.29-2.37-8.6-5.84-14.72-10.31-18.19l-.23-.2c-2.3-1.94-7.48-4.94-19.05-8.17-10.05-2.8-17.12-4.53-21-5.13l-6.36-1V28.43H430.86V61.54l-6.72.7c-4.45.46-11,1.53-19.54,3.17-7.69,1.48-14.16,4-19.22,7.59l-.19.13c-4.45,2.93-7.73,8.72-9.76,17.23-2.35,9.85-3.54,25.12-3.54,45.39V263.38c0,39.59-13.69,72-40.68,96.22C304.45,383.65,268.77,395.85,225.16,395.85ZM33,47.86c2.68.47,5.68,1,9,1.76a72.18,72.18,0,0,1,17.28,5.7l.14.08C67,59.37,72.08,63.93,75,69.34a37.58,37.58,0,0,1,4.17,18.07V262.9c0,37.47,12.23,65.78,37.4,86.55s61.77,31.4,108.59,31.4c39.79,0,72.1-10.9,96-32.4s35.71-49.42,35.71-85.07V135.75c0-21.74,1.29-37.73,3.95-48.87,2.93-12.29,8.31-21.11,16-26.21,6.8-4.76,15.18-8.11,24.92-10,5.5-1.06,10.18-1.88,14.1-2.48V43.43H282v5.2c4.23,1,9.66,2.37,16.39,4.24,11.46,3.2,19.5,6.82,24.58,11.07,7,5.51,12.21,14.24,15.44,26,3,11,4.5,26.79,4.5,48.28V254.44c0,35-8.72,62.1-25.92,80.53s-41.34,28-71.38,28c-30.46,0-54.2-8.57-70.56-25.48s-24.56-43.57-24.56-79.43V85a43.26,43.26,0,0,1,3.84-18.38c3-6.48,8.68-11.08,16.87-13.66a121.08,121.08,0,0,1,17.22-4.24c3.16-.52,6.32-1,9.45-1.29v-4H33Z"/><path class="cls-8" d="M584.83,395.85a218.92,218.92,0,0,1-60.7-8.15,236.09,236.09,0,0,1-42.57-16.43l-14.93,15.15h-31l-3.52-139h33.58l1.87,4.74A317.94,317.94,0,0,0,485,288.59a174.9,174.9,0,0,0,24.09,33.69,123.05,123.05,0,0,0,31.13,24.93c11,6.12,24.11,9.22,39,9.22,19.88,0,35.13-4.74,45.33-14.11s15.1-20.77,15.1-35a36.5,36.5,0,0,0-12.45-28.23c-9-8.32-23.6-15.73-43.25-22-13.47-4.34-26-8.43-37.4-12.15s-22.37-7.65-32.41-11.55c-24.45-9.76-42.91-24-54.92-42.33a110.25,110.25,0,0,1-18-61.47,97.51,97.51,0,0,1,9.41-41.79A110.63,110.63,0,0,1,477.85,52.1c11.38-9.83,25.94-17.88,43.35-24A171,171,0,0,1,577.82,19a182.43,182.43,0,0,1,55.71,8.33,255.34,255.34,0,0,1,35.52,13.91l13-12.81h31.48l2.18,132H682.16l-1.84-4.82c-4.71-12.27-10.35-25.06-16.76-38-6.23-12.57-12.87-23.12-19.72-31.37a86.87,86.87,0,0,0-25.11-20.6c-9.16-4.95-20.16-7.46-32.69-7.46-15.64,0-28,4.21-37.67,12.87-9.45,8.43-14,18.56-14,31,0,11.62,3.9,20.81,11.93,28.1,8.75,8,22.92,15.17,42.11,21.42,11.91,4,24.16,8.09,36.5,12.1s23.69,8,33.48,11.75c24.58,9.51,43.61,22.91,56.57,39.84C728,232.37,734.7,253.81,734.7,279a103.24,103.24,0,0,1-11.18,46.43,107.9,107.9,0,0,1-30.13,37.17,150.24,150.24,0,0,1-47,24.7C628.77,393,608.06,395.85,584.83,395.85Zm-106-43.2,5,2.82c12,6.77,27,12.77,44.45,17.82a204.16,204.16,0,0,0,56.53,7.56c21.66,0,40.81-2.65,56.91-7.87a135.55,135.55,0,0,0,42.39-22.23,93.07,93.07,0,0,0,26-32.07A88.41,88.41,0,0,0,719.7,279c0-21.76-5.62-40.14-16.7-54.62-11.26-14.71-28.1-26.47-50-35-9.53-3.66-20.55-7.52-32.73-11.48-12.39-4-24.7-8.11-36.58-12.13-21.45-7-37-15-47.49-24.56C525,131.05,519.32,117.86,519.32,102c0-16.69,6.41-30.87,19.07-42.16,12.4-11.06,28.43-16.67,47.65-16.67,15.05,0,28.44,3.12,39.82,9.26a101.9,101.9,0,0,1,29.49,24.18c7.62,9.17,14.9,20.71,21.65,34.33,5.79,11.68,11,23.26,15.44,34.48h8l-1.68-102H688.21L671.65,59.72,666.74,57c-9-5-21.75-10.22-37.79-15.36A167.29,167.29,0,0,0,577.82,34a156.12,156.12,0,0,0-51.66,8.29c-15.62,5.47-28.55,12.57-38.43,21.1a95.65,95.65,0,0,0-23.5,30.8,82.65,82.65,0,0,0-8,35.41,95.45,95.45,0,0,0,15.57,53.25c10.29,15.71,26.39,28,47.87,36.59,9.73,3.78,20.38,7.58,31.58,11.25s23.89,7.8,37.31,12.13c22,7,38,15.29,48.82,25.24a51.43,51.43,0,0,1,17.3,39.27c0,18.39-6.72,33.89-20,46-13,12-31.72,18.06-55.47,18.06-17.49,0-33.07-3.74-46.31-11.12a137.94,137.94,0,0,1-34.9-27.91,189.66,189.66,0,0,1-26.14-36.54,341.69,341.69,0,0,1-16.37-33.44h-8.06l2.77,109h10.09Z"/><path class="cls-9" d="M422.36,54.78q-7,.72-20.18,3.26t-22.12,8.83q-9.18,6-12.93,21.75t-3.74,47.13V263.38q0,56.33-38.2,90.64t-101,34.33q-73.24,0-113.37-33.12T70.67,262.9V87.41a30.07,30.07,0,0,0-3.27-14.5Q64.15,66.86,55,62A65,65,0,0,0,39.49,57Q30.3,55,24.5,54.3V35.93H204.34V54.3a154.7,154.7,0,0,0-15.71,1.81,113.8,113.8,0,0,0-16.2,4q-9.19,2.9-12.33,9.67A35.8,35.8,0,0,0,157,85V258.06q0,51,22.45,74.21t65.17,23.2q42,0,65.9-25.62t23.9-75.41V138.17q0-30.93-4.23-46.29T317.22,69.77q-6.29-5.33-21.88-9.67t-21.87-5.32V35.93H422.36Z"/><path class="cls-10" d="M583.83,388.35a210.3,210.3,0,0,1-58.62-7.86q-27.18-7.85-46-18.49l-16.68,16.92H441.94l-3.14-124h20.79a322.46,322.46,0,0,0,17.89,37.31,182.21,182.21,0,0,0,25.13,35.13,129.8,129.8,0,0,0,33,26.4q18.25,10.17,42.66,10.17,32.87,0,50.4-16.08t17.53-40.52a44,44,0,0,0-14.87-33.75Q616.46,259.92,585.28,250q-20.31-6.56-37.34-12.14t-32-11.41q-34.57-13.8-51.37-39.45T447.75,129.6a89.72,89.72,0,0,1,8.7-38.6,102.54,102.54,0,0,1,25.38-33.28q15.94-13.78,40.85-22.51t54.14-8.71a174.08,174.08,0,0,1,53.42,8q24.88,8,39.16,16l14.74-14.5h21l1.94,117H686.32q-7.25-18.9-17-38.65T648.61,81.44A94,94,0,0,0,621.3,59Q605.82,50.68,585,50.67q-26.1,0-42.66,14.77T525.82,102q0,20.58,14.38,33.65t44.84,23q17.88,6.06,36.5,12.1t33.12,11.62q35,13.56,53.29,37.4T726.2,279A95.29,95.29,0,0,1,715.81,322a99.88,99.88,0,0,1-28,34.61,142.4,142.4,0,0,1-44.72,23.48Q617.67,388.34,583.83,388.35Z"/><path class="cls-11" d="M268.47,29.93V54.35l2.54.4c4.06.62,11.3,2.38,21.53,5.24,9.92,2.77,16.9,5.82,20.74,9.07l.1.08c5.25,4.08,9.24,11,11.88,20.54,2.73,9.93,4.12,25.24,4.12,45.49V251.44c0,32.26-7.77,56.94-23.09,73.37s-36.7,24.66-63.71,24.66c-27.5,0-48.71-7.49-63-22.29S158,288.1,158,255.06V82A33.84,33.84,0,0,1,160,69.91,35.78,35.78,0,0,0,157,85V258.06q0,51,22.45,74.21t65.17,23.2q42,0,65.9-25.62t23.9-75.41V138.17q0-30.93-4.23-46.29T317.22,69.77q-6.29-5.33-21.88-9.67t-21.87-5.32V35.93H422.36V54.59l1-.1V29.93Z"/><path class="cls-11" d="M110.79,355.23Q70.67,322.13,70.67,262.9V87.41a30.07,30.07,0,0,0-3.27-14.5Q64.15,66.86,55,62A65,65,0,0,0,39.49,57Q30.3,55,24.5,54.3V35.93H204.34V54.18l1-.07V29.93H19.5V54l2.63.32c3.74.47,8.7,1.35,14.74,2.62a62,62,0,0,1,14.69,4.8c5.56,2.93,9.33,6.17,11.21,9.64a27.42,27.42,0,0,1,2.9,13.08V259.9c0,40.23,13.86,72.08,41.21,94.65,27.17,22.43,66,33.8,115.28,33.8h.92Q150.63,388.1,110.79,355.23Z"/><path class="cls-11" d="M367.13,88.62q-3.75,15.72-3.74,47.13V263.38q0,26-8.14,47.28,9.11-22.61,9.14-50.28V132.75c0-20.62,1.23-36.25,3.66-46.43a52.38,52.38,0,0,1,2.22-7.15A53.4,53.4,0,0,0,367.13,88.62Z"/><path class="cls-11" d="M653.73,176.57c-9.72-3.73-20.92-7.65-33.26-11.67s-24.62-8.08-36.5-12.1c-19.81-6.45-34.53-14-43.75-22.37-9-8.19-13.4-18.47-13.4-31.43a45.86,45.86,0,0,1,2.76-16.12A48.07,48.07,0,0,0,525.82,102q0,20.58,14.38,33.65t44.84,23q17.88,6.06,36.5,12.1t33.12,11.62q35,13.56,53.29,37.4T726.2,279a93.88,93.88,0,0,1-6.82,35.12A97.62,97.62,0,0,0,727.2,276c0-24.12-6.34-44.65-18.86-61S677.52,185.77,653.73,176.57Z"/><path class="cls-11" d="M525.21,380.49q-27.18-7.85-46-18.49l-1,1c12.25,6.61,27.09,12.45,44.18,17.39a214.54,214.54,0,0,0,59.45,8h1A209.76,209.76,0,0,1,525.21,380.49Z"/><path class="cls-11" d="M441.94,378.92l-3.14-124h20.79a322.46,322.46,0,0,0,17.89,37.31,182.21,182.21,0,0,0,25.13,35.13,129.8,129.8,0,0,0,33,26.4q18.25,10.17,42.66,10.17,32.87,0,50.4-16.08t17.53-40.52a44,44,0,0,0-14.87-33.75Q616.46,259.92,585.28,250q-20.31-6.56-37.34-12.14t-32-11.41q-34.57-13.8-51.37-39.45T447.75,129.6a89.72,89.72,0,0,1,8.7-38.6,102.54,102.54,0,0,1,25.38-33.28q15.94-13.78,40.85-22.51t54.14-8.71a174.08,174.08,0,0,1,53.42,8q24.88,8,39.16,16l14.74-14.5h21l1.94,117H686.32q-7.25-18.9-17-38.65T648.61,81.44A94,94,0,0,0,621.3,59Q605.82,50.68,585,50.67h-.82c12.8.16,24.12,2.84,33.65,8a91.59,91.59,0,0,1,26.44,21.69c7.07,8.51,13.89,19.36,20.28,32.24,6.47,13.07,12.17,26,16.93,38.39l.74,1.93h25.9l-2-123H680.91l-14,13.8c-9.46-5-22.13-10.11-37.72-15.11a177.88,177.88,0,0,0-54.34-8.12,166.59,166.59,0,0,0-55.13,8.88C502.82,35.29,488.75,43,477.84,52.47a106.05,106.05,0,0,0-26.11,34.25,93.14,93.14,0,0,0-9,39.88,105.81,105.81,0,0,0,17.28,59c11.5,17.55,29.25,31.21,52.79,40.6,10,3.88,20.8,7.74,32.18,11.47s23.92,7.81,37.37,12.14c20.27,6.48,35.39,14.21,44.93,23,9.35,8.6,13.9,18.91,13.9,31.54,0,15.55-5.42,28.08-16.56,38.31s-27.33,15.29-48.37,15.29c-15.68,0-29.54-3.29-41.2-9.79a127.49,127.49,0,0,1-32.25-25.81,179.69,179.69,0,0,1-24.72-34.56,321.05,321.05,0,0,1-17.72-36.95l-.75-1.9h-25.9l3.29,130h4.92Z"/><g class="cls-12"><ellipse class="cls-13" cx="377.7" cy="28.67" rx="362.5" ry="7.34"/><ellipse class="cls-13" cx="377.7" cy="44.68" rx="362.5" ry="7.34"/><ellipse class="cls-13" cx="377.7" cy="60.7" rx="362.5" ry="7.34"/><ellipse class="cls-13" cx="377.7" cy="76.71" rx="362.5" ry="7.34"/><ellipse class="cls-13" cx="377.7" cy="92.72" rx="362.5" ry="7.34"/><ellipse class="cls-13" cx="377.7" cy="108.74" rx="362.5" ry="7.34"/><ellipse class="cls-13" cx="377.7" cy="124.75" rx="362.5" ry="7.34"/><ellipse class="cls-13" cx="377.7" cy="140.77" rx="362.5" ry="7.34"/><ellipse class="cls-13" cx="377.7" cy="156.78" rx="362.5" ry="7.34"/><ellipse class="cls-13" cx="377.7" cy="172.8" rx="362.5" ry="7.34"/><ellipse class="cls-13" cx="377.7" cy="188.81" rx="362.5" ry="7.34"/><ellipse class="cls-13" cx="377.7" cy="204.83" rx="362.5" ry="7.34"/><ellipse class="cls-13" cx="377.7" cy="220.84" rx="362.5" ry="7.34"/><ellipse class="cls-13" cx="377.7" cy="236.86" rx="362.5" ry="7.34"/><ellipse class="cls-13" cx="377.7" cy="252.87" rx="362.5" ry="7.34"/><ellipse class="cls-13" cx="377.7" cy="268.88" rx="362.5" ry="7.34"/><ellipse class="cls-13" cx="377.7" cy="284.9" rx="362.5" ry="7.34"/><ellipse class="cls-13" cx="377.7" cy="300.91" rx="362.5" ry="7.34"/><ellipse class="cls-13" cx="377.7" cy="316.93" rx="362.5" ry="7.34"/><ellipse class="cls-13" cx="377.7" cy="332.94" rx="362.5" ry="7.34"/><ellipse class="cls-13" cx="377.7" cy="348.96" rx="362.5" ry="7.34"/><ellipse class="cls-13" cx="377.7" cy="364.97" rx="362.5" ry="7.34"/><ellipse class="cls-13" cx="377.7" cy="380.99" rx="362.5" ry="7.34"/></g><g class="cls-14"><ellipse class="cls-13" cx="377.7" cy="28.67" rx="362.5" ry="7.34"/><ellipse class="cls-13" cx="377.7" cy="44.68" rx="362.5" ry="7.34"/><ellipse class="cls-13" cx="377.7" cy="60.7" rx="362.5" ry="7.34"/><ellipse class="cls-13" cx="377.7" cy="76.71" rx="362.5" ry="7.34"/><ellipse class="cls-13" cx="377.7" cy="92.72" rx="362.5" ry="7.34"/><ellipse class="cls-13" cx="377.7" cy="108.74" rx="362.5" ry="7.34"/><ellipse class="cls-13" cx="377.7" cy="124.75" rx="362.5" ry="7.34"/><ellipse class="cls-13" cx="377.7" cy="140.77" rx="362.5" ry="7.34"/><ellipse class="cls-13" cx="377.7" cy="156.78" rx="362.5" ry="7.34"/><ellipse class="cls-13" cx="377.7" cy="172.8" rx="362.5" ry="7.34"/><ellipse class="cls-13" cx="377.7" cy="188.81" rx="362.5" ry="7.34"/><ellipse class="cls-13" cx="377.7" cy="204.83" rx="362.5" ry="7.34"/><ellipse class="cls-13" cx="377.7" cy="220.84" rx="362.5" ry="7.34"/><ellipse class="cls-13" cx="377.7" cy="236.86" rx="362.5" ry="7.34"/><ellipse class="cls-13" cx="377.7" cy="252.87" rx="362.5" ry="7.34"/><ellipse class="cls-13" cx="377.7" cy="268.88" rx="362.5" ry="7.34"/><ellipse class="cls-13" cx="377.7" cy="284.9" rx="362.5" ry="7.34"/><ellipse class="cls-13" cx="377.7" cy="300.91" rx="362.5" ry="7.34"/><ellipse class="cls-13" cx="377.7" cy="316.93" rx="362.5" ry="7.34"/><ellipse class="cls-13" cx="377.7" cy="332.94" rx="362.5" ry="7.34"/><ellipse class="cls-13" cx="377.7" cy="348.96" rx="362.5" ry="7.34"/><ellipse class="cls-13" cx="377.7" cy="364.97" rx="362.5" ry="7.34"/><ellipse class="cls-13" cx="377.7" cy="380.99" rx="362.5" ry="7.34"/></g></g></g></svg>