<svg xmlns="http://www.w3.org/2000/svg" viewBox="0 0 113.28 83.03"><defs><style>.cls-1{fill:#fff;}</style></defs><title>Asset 2</title><g id="Layer_2" data-name="Layer 2"><g id="Layer_1-2" data-name="Layer 1"><path class="cls-1" d="M39.09.05A32,32,0,0,0,27.66,24.69a30.37,30.37,0,0,0,7.46,20.23,30.54,30.54,0,0,0,43.2-.29l.4-.4A27.66,27.66,0,0,0,85.9,24.64,30.29,30.29,0,0,0,74,0h33.73a67.63,67.63,0,0,1,5.54,25.46A57.18,57.18,0,0,1,56.5,83h-.4A57.17,57.17,0,0,1,16.32,66.55,59.16,59.16,0,0,1,0,24.49c0-7,1.32-13.23,5.4-24.49Z"/></g></g></svg>