<svg xmlns="http://www.w3.org/2000/svg" xmlns:xlink="http://www.w3.org/1999/xlink" viewBox="0 0 610.78 431.93"><defs><style>.cls-1{fill:#303030;}.cls-2{fill:url(#radial-gradient);}.cls-3{fill:url(#radial-gradient-2);}.cls-4{fill:url(#radial-gradient-3);}.cls-5{fill:url(#radial-gradient-4);}.cls-6{fill:#fff;}.cls-7{fill:url(#radial-gradient-5);}.cls-8{fill:url(#radial-gradient-6);}.cls-9{fill:url(#radial-gradient-7);}.cls-10{fill:url(#radial-gradient-8);}</style><radialGradient id="radial-gradient" cx="513.83" cy="28.23" r="201.92" gradientTransform="matrix(-1, 0.08, 0.08, 1, 948.11, -39.46)" gradientUnits="userSpaceOnUse"><stop offset="0" stop-color="#eef5d8"/><stop offset="1" stop-color="#b9d961"/></radialGradient><radialGradient id="radial-gradient-2" cx="543.23" cy="135.98" r="349.9" gradientUnits="userSpaceOnUse"><stop offset="0" stop-color="#e6e6e6"/><stop offset="1" stop-color="#999"/></radialGradient><radialGradient id="radial-gradient-3" cx="246.5" cy="163.9" r="330.35" xlink:href="#radial-gradient-2"/><radialGradient id="radial-gradient-4" cx="146.83" cy="28.23" r="201.92" gradientTransform="translate(8.38 -10.02) rotate(4.6)" gradientUnits="userSpaceOnUse"><stop offset="0" stop-color="#f3faff"/><stop offset="1" stop-color="#c4d3ed"/></radialGradient><radialGradient id="radial-gradient-5" cx="146.17" cy="72.23" r="81.09" gradientTransform="translate(183.35 -15.73) rotate(87.9)" gradientUnits="userSpaceOnUse"><stop offset="0" stop-color="#ffedc0"/><stop offset="1" stop-color="#8c6239"/></radialGradient><radialGradient id="radial-gradient-6" cx="265.08" cy="75.23" r="71.04" gradientTransform="translate(57.41 -92.81) rotate(25.36)" xlink:href="#radial-gradient-5"/><radialGradient id="radial-gradient-7" cx="509.07" cy="82.63" r="81.09" gradientTransform="matrix(-1, -0.04, -0.04, 1, 960.66, 14.05)" xlink:href="#radial-gradient-5"/><radialGradient id="radial-gradient-8" cx="622.92" cy="85.08" r="71.04" gradientTransform="matrix(-0.43, -0.9, -0.9, 0.43, 700.71, 596.29)" xlink:href="#radial-gradient-5"/></defs><title>wownice</title><g id="Layer_2" data-name="Layer 2"><g id="Layer_1-2" data-name="Layer 1"><rect class="cls-1" x="293.83" y="150.23" width="52" height="90" rx="6" ry="6" transform="matrix(0.95, 0.31, -0.31, 0.95, 75.7, -89.03)"/><ellipse class="cls-2" cx="461.83" cy="99.23" rx="129" ry="99" transform="matrix(1, -0.01, 0.01, 1, -0.83, 3.92)"/><path class="cls-3" d="M491.83,194.23c13.74-4.37,2.11,15.31,11,22,18.39,13.83,76.43-17.79,74-40-1.86-17-38.53-22.19-37-29,1.5-6.64,38.72-12.53,58,6,20.32,19.52,14.19,59.88-1,85-19,31.45-42.79,23.4-61,50-32.71,47.78,11.6,121.08-5,129-9.46,4.52-31.32-15.77-43-36-15.74-27.28-11.82-52.45-18-53-5.43-.48-10.35,18.87-28,62-13.66,33.4-16.18,35.16-18,35-9.6-.83-17.64-56.39-14-109,2.48-35.73,8.4-42,2-58-13.59-34-51.69-33.88-55-59-3.26-24.79,30-53.88,40-49,8.06,3.94,5.17,53.75,16,61,6.61,4.42-2.74-21.17,24-15A104.62,104.62,0,0,0,491.83,194.23Z"/><path class="cls-4" d="M175.33,180.73a70.91,70.91,0,0,0,8,20c18.22,30.65,61.87,49.17,90,37,26.89-11.63,29.09-46.75,41-45,9.71,1.43,18.45,26.23,13,47-8.85,33.73-55.28,57.42-92,52-23.24-3.43-33.88-17.24-44-11-5,3.08-11.2,11.87-5,58,7.65,56.82,23.35,90,18,93-8.78,4.93-51.25-84.35-87-78-29.91,5.31-37.58,74.45-46,73-13.42-2.32,9.64-177.64-3-180-8.89-1.66-24.13,84.41-36,83-11.72-1.39-30.36-89.33,16-134,15.78-15.2,34.28-20.77,42-23C130.54,161.1,164.91,175.78,175.33,180.73Z"/><ellipse class="cls-5" cx="128.83" cy="99.23" rx="129" ry="99" transform="translate(-7.55 10.66) rotate(-4.6)"/><ellipse class="cls-6" cx="79.98" cy="85.25" rx="32.99" ry="40" transform="translate(-8.13 162.05) rotate(-87.9)"/><ellipse class="cls-7" cx="99.83" cy="87.23" rx="15.16" ry="14.99" transform="translate(9.01 183.81) rotate(-87.9)"/><ellipse class="cls-6" cx="220.33" cy="79.44" rx="29.61" ry="27.69" transform="translate(-9.25 33.07) rotate(-8.41)"/><ellipse class="cls-8" cx="234.93" cy="81.16" rx="12.87" ry="12.58" transform="translate(-12.12 108.46) rotate(-25.36)"/><path class="cls-1" d="M94.06,133.58s3.52,6.29,23.14,11.83,31.67,5.48,31.67,5.48-25.39,4-38-1A29.73,29.73,0,0,1,94.06,133.58Z"/><ellipse class="cls-6" cx="509.25" cy="80.97" rx="40" ry="32.99" transform="translate(-6.13 64.32) rotate(-7.18)"/><ellipse class="cls-9" cx="494.65" cy="94.7" rx="14.99" ry="15.16" transform="translate(-7.96 62.6) rotate(-7.18)"/><ellipse class="cls-6" cx="368.94" cy="87.64" rx="27.69" ry="29.61" transform="translate(260.09 450.88) rotate(-86.68)"/><ellipse class="cls-10" cx="364.56" cy="99.65" rx="12.58" ry="12.87" transform="translate(144.76 407.09) rotate(-69.73)"/><path class="cls-1" d="M499.83,121.23a208.54,208.54,0,0,1-33,16c-19.06,7.26-38,13-38,13s39.85,26.1,52,20C493.25,164,499.83,121.23,499.83,121.23Z"/></g></g></svg>